<?xml version="1.0" encoding="UTF-8"?>
<svg width="120px" height="120px" viewBox="0 0 120 120" version="1.1" xmlns="http://www.w3.org/2000/svg" xmlns:xlink="http://www.w3.org/1999/xlink">
    <!-- Generator: Sketch 40.3 (33839) - http://www.bohemiancoding.com/sketch -->
    <title>120 - iPhone</title>
    <desc>Created with Sketch.</desc>
    <defs></defs>
    <g id="Page-1" stroke="none" stroke-width="1" fill="none" fill-rule="evenodd">
        <g id="120---iPhone">
            <circle id="Oval-3" stroke="#FFFFFF" fill="#FFFFFF" cx="60" cy="60" r="57"></circle>
            <g id="noun_28381_cc" transform="translate(28.000000, 28.000000)" fill="#313131">
                <g id="Group">
                    <g>
                        <path d="M49.768,0.727 L14.232,0.727 C6.785,0.727 0.727,6.786 0.727,14.232 L0.727,49.769 C0.727,57.215 6.786,63.274 14.232,63.274 L49.768,63.274 C57.215,63.274 63.274,57.215 63.274,49.769 L63.274,14.231 C63.273,6.785 57.215,0.727 49.768,0.727 L49.768,0.727 Z M43.021,10.728 C43.021,9.516 44.013,8.524 45.226,8.524 L51.84,8.524 C53.053,8.524 54.045,9.516 54.045,10.728 L54.045,17.343 C54.045,18.555 53.053,19.547 51.84,19.547 L45.226,19.547 C44.013,19.547 43.021,18.555 43.021,17.343 L43.021,10.728 L43.021,10.728 Z M49.768,59.954 L14.232,59.954 C8.616,59.954 4.046,55.385 4.046,49.768 L4.046,23.314 L18.611,23.314 C21.776,19.428 26.597,16.946 31.999,16.946 C37.401,16.946 42.223,19.428 45.388,23.314 L59.952,23.314 L59.952,49.768 C59.953,55.385 55.385,59.954 49.768,59.954 L49.768,59.954 Z" id="Shape"></path>
                        <circle id="Oval" cx="32" cy="33.335" r="14.386"></circle>
                    </g>
                </g>
            </g>
        </g>
    </g>
</svg>