<?xml version="1.0" encoding="UTF-8"?>
<svg width="120px" height="120px" viewBox="0 0 120 120" version="1.1" xmlns="http://www.w3.org/2000/svg" xmlns:xlink="http://www.w3.org/1999/xlink">
    <!-- Generator: Sketch 40.3 (33839) - http://www.bohemiancoding.com/sketch -->
    <title>120 - iPhone</title>
    <desc>Created with Sketch.</desc>
    <defs></defs>
    <g id="Page-1" stroke="none" stroke-width="1" fill="none" fill-rule="evenodd">
        <g id="120---iPhone">
            <g id="noun_20940" transform="translate(32.000000, 37.000000)"></g>
            <circle id="Oval-3" stroke="#FFFFFF" fill="#FFFFFF" cx="60" cy="61" r="57"></circle>
            <path d="M86.3146667,42.5781053 C86.7288667,41.1810526 86.2551333,39.6703158 85.1075333,38.7608421 C84.4564667,38.2416842 83.6686,37.9802105 82.8693333,37.9802105 C82.2385333,37.9802105 81.6077333,38.1444211 81.0415333,38.4816842 C79.9167333,39.1397895 78.74,39.6677895 77.5113333,40.0404211 C75.1629333,38.2492632 72.2508667,37.2526316 69.2577333,37.2526316 C62.3974667,37.2526316 56.7139333,42.3557895 55.8184,48.9545263 C50.3489333,47.7873684 45.3658667,44.7823158 41.7761333,40.3915789 C41.0921333,39.5503158 40.0661333,39.0703158 38.9945333,39.0703158 C38.9046,39.0703158 38.8096,39.0766316 38.7133333,39.0829474 C37.5378667,39.1751579 36.4878,39.8357895 35.8937333,40.8488421 C34.6878667,42.9090526 34.0532667,45.2585263 34.0532667,47.6522105 C34.0532667,49.2690526 34.3408,50.8416842 34.8728,52.3107368 C34.3002667,52.96 33.9684,53.8012632 33.9684,54.6905263 C33.9684,58.2374737 35.3110667,61.4989474 37.548,63.9494737 C37.4099333,64.5608421 37.4314667,65.2075789 37.6328667,65.8265263 C38.4068,68.2442105 39.8229333,70.3246316 41.6545333,71.9124211 C40.4651333,72.1814737 39.2339333,72.3191579 37.985,72.3191579 C37.3377333,72.3191579 36.6828667,72.2774737 36.0229333,72.2029474 C35.8836,72.1852632 35.7442667,72.1764211 35.6024,72.1764211 C34.1001333,72.1764211 32.7397333,73.1136842 32.2292667,74.5574737 C31.6630667,76.1237895 32.2622,77.8757895 33.6656667,78.7764211 C38.8222667,82.0694737 44.7806667,83.8113684 50.8948667,83.8113684 C70.7245333,83.8113684 82.6413333,67.8955789 82.8554,52.36 C84.4691333,50.9894737 85.8878,49.4117895 87.0911333,47.6509474 C87.5458667,47.0522105 87.8156667,46.3082105 87.8156667,45.4934737 C87.8156667,44.2947368 87.2228667,43.2311579 86.3146667,42.5781053 L86.3146667,42.5781053 Z" id="Shape" fill="#313131"></path>
        </g>
    </g>
</svg>