<?xml version="1.0" encoding="UTF-8"?>
<svg width="72px" height="82px" viewBox="0 0 72 82" version="1.1" xmlns="http://www.w3.org/2000/svg" xmlns:xlink="http://www.w3.org/1999/xlink">
    <!-- Generator: Sketch 40.3 (33839) - http://www.bohemiancoding.com/sketch -->
    <title>noun_159333_cc</title>
    <desc>Created with Sketch.</desc>
    <defs></defs>
    <g id="Page-1" stroke="none" stroke-width="1" fill="none" fill-rule="evenodd">
        <g id="noun_159333_cc" fill="#000000">
            <g id="Group">
                <path d="M54.571,79.158 C54.477,79.252 54.35,79.304 54.217,79.304 L18,79.304 C17.867,79.304 17.74,79.251 17.646,79.158 L16.314,77.826 L0.5,77.826 L0.5,82 L72,82 L72,77.826 L55.902,77.826 L54.571,79.158 L54.571,79.158 Z" id="Shape"></path>
                <path d="M67,27.587 L67,24.152 L59.892,24.152 L59.892,27.656 C59.964,27.616 60.043,27.587 60.131,27.587 L67,27.587 L67,27.587 Z" id="Shape"></path>
                <path d="M13.065,18.239 L10.5,18.239 L10.5,20 C10.5,20.276 10.276,20.5 10,20.5 L5.5,20.5 L5.5,23.152 L13.065,23.152 L13.065,18.239 L13.065,18.239 Z" id="Shape"></path>
                <rect id="Rectangle-path" x="5.5" y="24.152" width="7.565" height="3.435"></rect>
                <path d="M67,28.587 L60.131,28.587 C60.043,28.587 59.964,28.558 59.892,28.518 L59.892,32.022 L62.5,32.022 C62.776,32.022 63,32.246 63,32.522 L63,41.848 C63,42.124 62.776,42.348 62.5,42.348 L54.668,42.348 C51.547,48.645 44.303,52.696 36.108,52.696 C27.913,52.696 20.67,48.645 17.55,42.348 L10,42.348 C9.724,42.348 9.5,42.124 9.5,41.848 L9.5,32.522 C9.5,32.246 9.724,32.022 10,32.022 L13.065,32.022 L13.065,28.587 L5.5,28.587 L5.5,55.391 L67,55.391 L67,28.587 L67,28.587 Z" id="Shape"></path>
                <path d="M16.875,76.973 L18.207,78.305 L54.011,78.305 L55.342,76.973 C55.436,76.879 55.563,76.827 55.696,76.827 L71.87,76.827 L67.103,56.392 L5.397,56.392 L0.63,76.826 L16.522,76.826 C16.654,76.826 16.781,76.879 16.875,76.973 L16.875,76.973 Z M16.761,66.239 C16.761,65.544 17.467,65 18.369,65 C19.271,65 19.978,65.544 19.978,66.239 C19.978,66.934 19.271,67.478 18.369,67.478 C17.467,67.478 16.761,66.934 16.761,66.239 L16.761,66.239 Z M20.587,71.174 C19.685,71.174 18.979,70.63 18.979,69.935 C18.979,69.24 19.685,68.696 20.587,68.696 C21.489,68.696 22.195,69.24 22.195,69.935 C22.195,70.63 21.489,71.174 20.587,71.174 L20.587,71.174 Z M21.195,66.239 C21.195,65.544 21.902,65 22.804,65 C23.706,65 24.412,65.544 24.412,66.239 C24.412,66.934 23.706,67.478 22.804,67.478 C21.902,67.478 21.195,66.934 21.195,66.239 L21.195,66.239 Z M23.413,69.935 C23.413,69.24 24.119,68.696 25.021,68.696 C25.923,68.696 26.63,69.24 26.63,69.935 C26.63,70.63 25.923,71.174 25.021,71.174 C24.119,71.174 23.413,70.629 23.413,69.935 L23.413,69.935 Z M45.848,69.935 C45.848,70.63 45.142,71.174 44.24,71.174 C43.338,71.174 42.632,70.63 42.632,69.935 C42.632,69.24 43.338,68.696 44.24,68.696 C45.142,68.696 45.848,69.24 45.848,69.935 L45.848,69.935 Z M44.5,66.239 C44.5,65.544 45.206,65 46.108,65 C47.01,65 47.717,65.544 47.717,66.239 C47.717,66.934 47.01,67.478 46.108,67.478 C45.206,67.478 44.5,66.934 44.5,66.239 L44.5,66.239 Z M41.392,67.478 C40.49,67.478 39.783,66.934 39.783,66.239 C39.783,65.544 40.489,65 41.392,65 C42.295,65 43,65.544 43,66.239 C43,66.934 42.294,67.478 41.392,67.478 L41.392,67.478 Z M40.674,69.935 C40.674,70.63 39.968,71.174 39.066,71.174 C38.164,71.174 37.457,70.63 37.457,69.935 C37.457,69.24 38.164,68.696 39.066,68.696 C39.968,68.696 40.674,69.24 40.674,69.935 L40.674,69.935 Z M36.848,67.478 C35.946,67.478 35.24,66.934 35.24,66.239 C35.24,65.544 35.945,65 36.848,65 C37.751,65 38.456,65.544 38.456,66.239 C38.456,66.934 37.75,67.478 36.848,67.478 L36.848,67.478 Z M36.239,69.935 C36.239,70.63 35.533,71.174 34.631,71.174 C33.729,71.174 33.022,70.63 33.022,69.935 C33.022,69.24 33.729,68.696 34.631,68.696 C35.533,68.696 36.239,69.24 36.239,69.935 L36.239,69.935 Z M32.413,67.478 C31.511,67.478 30.805,66.934 30.805,66.239 C30.805,65.544 31.511,65 32.413,65 C33.315,65 34.021,65.544 34.021,66.239 C34.021,66.934 33.315,67.478 32.413,67.478 L32.413,67.478 Z M31.065,69.935 C31.065,70.63 30.358,71.174 29.456,71.174 C28.554,71.174 27.848,70.63 27.848,69.935 C27.848,69.24 28.554,68.696 29.456,68.696 C30.358,68.696 31.065,69.24 31.065,69.935 L31.065,69.935 Z M27.239,67.478 C26.337,67.478 25.631,66.934 25.631,66.239 C25.631,65.544 26.337,65 27.239,65 C28.141,65 28.847,65.544 28.847,66.239 C28.847,66.934 28.142,67.478 27.239,67.478 L27.239,67.478 Z M47.5,74.87 L25,74.87 C24.724,74.87 24.5,74.646 24.5,74.37 C24.5,74.094 24.724,73.87 25,73.87 L47.5,73.87 C47.776,73.87 48,74.094 48,74.37 C48,74.646 47.776,74.87 47.5,74.87 L47.5,74.87 Z M48.674,71.174 C47.772,71.174 47.066,70.63 47.066,69.935 C47.066,69.24 47.772,68.696 48.674,68.696 C49.576,68.696 50.282,69.24 50.282,69.935 C50.282,70.63 49.576,71.174 48.674,71.174 L48.674,71.174 Z M49.282,66.239 C49.282,65.544 49.989,65 50.891,65 C51.793,65 52.499,65.544 52.499,66.239 C52.499,66.934 51.793,67.478 50.891,67.478 C49.989,67.478 49.282,66.934 49.282,66.239 L49.282,66.239 Z M53.108,71.174 C52.206,71.174 51.5,70.63 51.5,69.935 C51.5,69.24 52.206,68.696 53.108,68.696 C54.01,68.696 54.717,69.24 54.717,69.935 C54.717,70.63 54.011,71.174 53.108,71.174 L53.108,71.174 Z M55.326,67.478 C54.424,67.478 53.718,66.934 53.718,66.239 C53.718,65.544 54.424,65 55.326,65 C56.228,65 56.934,65.544 56.934,66.239 C56.934,66.934 56.229,67.478 55.326,67.478 L55.326,67.478 Z M57.544,71.174 C56.642,71.174 55.935,70.63 55.935,69.935 C55.935,69.24 56.642,68.696 57.544,68.696 C58.446,68.696 59.152,69.24 59.152,69.935 C59.152,70.63 58.446,71.174 57.544,71.174 L57.544,71.174 Z M58.152,66.239 C58.152,65.544 58.858,65 59.76,65 C60.662,65 61.368,65.544 61.368,66.239 C61.368,66.934 60.662,67.478 59.76,67.478 C58.858,67.478 58.152,66.934 58.152,66.239 L58.152,66.239 Z M61.979,71.174 C61.077,71.174 60.37,70.63 60.37,69.935 C60.37,69.24 61.077,68.696 61.979,68.696 C62.881,68.696 63.587,69.24 63.587,69.935 C63.587,70.63 62.881,71.174 61.979,71.174 L61.979,71.174 Z M62.718,62.783 C63.62,62.783 64.326,63.327 64.326,64.022 C64.326,64.717 63.62,65.261 62.718,65.261 C61.816,65.261 61.109,64.717 61.109,64.022 C61.109,63.327 61.815,62.783 62.718,62.783 L62.718,62.783 Z M59.761,57.609 C60.663,57.609 61.369,58.153 61.369,58.848 C61.369,59.543 60.663,60.087 59.761,60.087 C58.859,60.087 58.153,59.543 58.153,58.848 C58.153,58.153 58.858,57.609 59.761,57.609 L59.761,57.609 Z M59.152,62.543 C59.152,63.238 58.446,63.782 57.544,63.782 C56.642,63.782 55.935,63.238 55.935,62.543 C55.935,61.848 56.642,61.304 57.544,61.304 C58.446,61.304 59.152,61.849 59.152,62.543 L59.152,62.543 Z M55.326,57.609 C56.228,57.609 56.934,58.153 56.934,58.848 C56.934,59.543 56.228,60.087 55.326,60.087 C54.424,60.087 53.718,59.543 53.718,58.848 C53.718,58.153 54.424,57.609 55.326,57.609 L55.326,57.609 Z M54.718,62.543 C54.718,63.238 54.011,63.782 53.109,63.782 C52.207,63.782 51.5,63.238 51.5,62.543 C51.5,61.848 52.206,61.304 53.108,61.304 C54.01,61.304 54.718,61.849 54.718,62.543 L54.718,62.543 Z M50.892,57.609 C51.794,57.609 52.5,58.153 52.5,58.848 C52.5,59.543 51.794,60.087 50.892,60.087 C49.99,60.087 49.283,59.543 49.283,58.848 C49.283,58.153 49.989,57.609 50.892,57.609 L50.892,57.609 Z M50.282,62.543 C50.282,63.238 49.576,63.782 48.674,63.782 C47.772,63.782 47.066,63.238 47.066,62.543 C47.066,61.848 47.772,61.304 48.674,61.304 C49.576,61.304 50.282,61.849 50.282,62.543 L50.282,62.543 Z M46.456,57.609 C47.358,57.609 48.065,58.153 48.065,58.848 C48.065,59.543 47.358,60.087 46.456,60.087 C45.554,60.087 44.848,59.543 44.848,58.848 C44.848,58.153 45.554,57.609 46.456,57.609 L46.456,57.609 Z M45.848,62.543 C45.848,63.238 45.142,63.782 44.24,63.782 C43.338,63.782 42.632,63.238 42.632,62.543 C42.632,61.848 43.338,61.304 44.24,61.304 C45.142,61.304 45.848,61.849 45.848,62.543 L45.848,62.543 Z M42.021,57.609 C42.923,57.609 43.63,58.153 43.63,58.848 C43.63,59.543 42.923,60.087 42.021,60.087 C41.119,60.087 40.413,59.543 40.413,58.848 C40.413,58.153 41.119,57.609 42.021,57.609 L42.021,57.609 Z M41.413,62.543 C41.413,63.238 40.707,63.782 39.805,63.782 C38.903,63.782 38.196,63.238 38.196,62.543 C38.196,61.848 38.903,61.304 39.805,61.304 C40.707,61.304 41.413,61.849 41.413,62.543 L41.413,62.543 Z M37.587,57.609 C38.489,57.609 39.195,58.153 39.195,58.848 C39.195,59.543 38.489,60.087 37.587,60.087 C36.685,60.087 35.979,59.543 35.979,58.848 C35.979,58.153 36.685,57.609 37.587,57.609 L37.587,57.609 Z M36.979,62.543 C36.979,63.238 36.272,63.782 35.37,63.782 C34.468,63.782 33.762,63.238 33.762,62.543 C33.762,61.848 34.468,61.304 35.37,61.304 C36.272,61.304 36.979,61.849 36.979,62.543 L36.979,62.543 Z M33.152,57.609 C34.054,57.609 34.76,58.153 34.76,58.848 C34.76,59.543 34.054,60.087 33.152,60.087 C32.25,60.087 31.544,59.543 31.544,58.848 C31.544,58.153 32.25,57.609 33.152,57.609 L33.152,57.609 Z M32.544,62.543 C32.544,63.238 31.837,63.782 30.935,63.782 C30.033,63.782 29.327,63.238 29.327,62.543 C29.327,61.848 30.033,61.304 30.935,61.304 C31.837,61.304 32.544,61.849 32.544,62.543 L32.544,62.543 Z M28.718,57.609 C29.62,57.609 30.326,58.153 30.326,58.848 C30.326,59.543 29.62,60.087 28.718,60.087 C27.816,60.087 27.109,59.543 27.109,58.848 C27.109,58.153 27.815,57.609 28.718,57.609 L28.718,57.609 Z M28.108,62.543 C28.108,63.238 27.402,63.782 26.5,63.782 C25.598,63.782 24.892,63.238 24.892,62.543 C24.892,61.848 25.598,61.304 26.5,61.304 C27.402,61.304 28.108,61.849 28.108,62.543 L28.108,62.543 Z M24.282,57.609 C25.184,57.609 25.891,58.153 25.891,58.848 C25.891,59.543 25.184,60.087 24.282,60.087 C23.38,60.087 22.674,59.543 22.674,58.848 C22.674,58.153 23.38,57.609 24.282,57.609 L24.282,57.609 Z M23.674,62.543 C23.674,63.238 22.968,63.782 22.066,63.782 C21.164,63.782 20.457,63.238 20.457,62.543 C20.457,61.848 21.164,61.304 22.066,61.304 C22.968,61.304 23.674,61.849 23.674,62.543 L23.674,62.543 Z M19.848,57.609 C20.75,57.609 21.456,58.153 21.456,58.848 C21.456,59.543 20.75,60.087 19.848,60.087 C18.946,60.087 18.24,59.543 18.24,58.848 C18.24,58.153 18.945,57.609 19.848,57.609 L19.848,57.609 Z M19.239,62.543 C19.239,63.238 18.533,63.782 17.631,63.782 C16.729,63.782 16.022,63.238 16.022,62.543 C16.022,61.848 16.729,61.304 17.631,61.304 C18.533,61.304 19.239,61.849 19.239,62.543 L19.239,62.543 Z M15.413,57.609 C16.315,57.609 17.021,58.153 17.021,58.848 C17.021,59.543 16.315,60.087 15.413,60.087 C14.511,60.087 13.805,59.543 13.805,58.848 C13.805,58.153 14.511,57.609 15.413,57.609 L15.413,57.609 Z M10.979,71.174 C10.077,71.174 9.37,70.63 9.37,69.935 C9.37,69.24 10.077,68.696 10.979,68.696 C11.881,68.696 12.587,69.24 12.587,69.935 C12.587,70.63 11.881,71.174 10.979,71.174 L10.979,71.174 Z M12.326,66.239 C12.326,65.544 13.032,65 13.934,65 C14.836,65 15.543,65.544 15.543,66.239 C15.543,66.934 14.836,67.478 13.934,67.478 C13.032,67.478 12.326,66.934 12.326,66.239 L12.326,66.239 Z M13.805,69.935 C13.805,69.24 14.511,68.696 15.413,68.696 C16.315,68.696 17.021,69.24 17.021,69.935 C17.021,70.63 16.315,71.174 15.413,71.174 C14.511,71.174 13.805,70.629 13.805,69.935 L13.805,69.935 Z" id="Shape"></path>
                <path d="M67,20.5 L62.5,20.5 C62.224,20.5 62,20.276 62,20 L62,18.239 L59.892,18.239 L59.892,23.152 L67,23.152 L67,20.5 L67,20.5 Z" id="Shape"></path>
                <path d="M15.413,59.087 C15.818,59.087 16.021,58.894 16.021,58.848 C16.021,58.803 15.818,58.609 15.413,58.609 C15.008,58.609 14.805,58.802 14.805,58.848 C14.805,58.894 15.008,59.087 15.413,59.087 L15.413,59.087 Z" id="Shape"></path>
                <path d="M19.848,59.087 C20.253,59.087 20.456,58.894 20.456,58.848 C20.456,58.803 20.253,58.609 19.848,58.609 C19.443,58.609 19.24,58.802 19.24,58.848 C19.239,58.894 19.442,59.087 19.848,59.087 L19.848,59.087 Z" id="Shape"></path>
                <path d="M24.282,59.087 C24.688,59.087 24.891,58.894 24.891,58.848 C24.891,58.803 24.688,58.609 24.282,58.609 C23.877,58.609 23.674,58.802 23.674,58.848 C23.674,58.894 23.877,59.087 24.282,59.087 L24.282,59.087 Z" id="Shape"></path>
                <path d="M28.718,59.087 C29.123,59.087 29.326,58.894 29.326,58.848 C29.326,58.803 29.123,58.609 28.718,58.609 C28.312,58.609 28.109,58.802 28.109,58.848 C28.108,58.894 28.312,59.087 28.718,59.087 L28.718,59.087 Z" id="Shape"></path>
                <path d="M33.152,59.087 C33.557,59.087 33.76,58.894 33.76,58.848 C33.76,58.803 33.557,58.609 33.152,58.609 C32.747,58.609 32.544,58.802 32.544,58.848 C32.544,58.894 32.747,59.087 33.152,59.087 L33.152,59.087 Z" id="Shape"></path>
                <path d="M37.587,59.087 C37.992,59.087 38.195,58.894 38.195,58.848 C38.195,58.803 37.992,58.609 37.587,58.609 C37.182,58.609 36.979,58.802 36.979,58.848 C36.979,58.894 37.182,59.087 37.587,59.087 L37.587,59.087 Z" id="Shape"></path>
                <path d="M42.021,59.087 C42.427,59.087 42.63,58.894 42.63,58.848 C42.63,58.803 42.427,58.609 42.021,58.609 C41.616,58.609 41.413,58.802 41.413,58.848 C41.413,58.894 41.616,59.087 42.021,59.087 L42.021,59.087 Z" id="Shape"></path>
                <path d="M46.456,59.087 C46.862,59.087 47.065,58.894 47.065,58.848 C47.065,58.803 46.862,58.609 46.456,58.609 C46.051,58.609 45.848,58.802 45.848,58.848 C45.848,58.894 46.051,59.087 46.456,59.087 L46.456,59.087 Z" id="Shape"></path>
                <path d="M50.892,59.087 C51.297,59.087 51.5,58.894 51.5,58.848 C51.5,58.803 51.297,58.609 50.892,58.609 C50.486,58.609 50.283,58.802 50.283,58.848 C50.282,58.894 50.485,59.087 50.892,59.087 L50.892,59.087 Z" id="Shape"></path>
                <path d="M55.326,59.087 C55.731,59.087 55.934,58.894 55.934,58.848 C55.934,58.803 55.731,58.609 55.326,58.609 C54.921,58.609 54.718,58.802 54.718,58.848 C54.718,58.894 54.921,59.087 55.326,59.087 L55.326,59.087 Z" id="Shape"></path>
                <path d="M59.761,59.087 C60.166,59.087 60.369,58.894 60.369,58.848 C60.369,58.803 60.166,58.609 59.761,58.609 C59.356,58.609 59.153,58.802 59.153,58.848 C59.152,58.894 59.355,59.087 59.761,59.087 L59.761,59.087 Z" id="Shape"></path>
                <path d="M57.544,62.783 C57.949,62.783 58.152,62.59 58.152,62.544 C58.152,62.498 57.949,62.305 57.544,62.305 C57.138,62.305 56.935,62.498 56.935,62.544 C56.935,62.59 57.138,62.783 57.544,62.783 L57.544,62.783 Z" id="Shape"></path>
                <path d="M53.108,62.783 C53.514,62.783 53.717,62.59 53.717,62.544 C53.717,62.498 53.514,62.305 53.108,62.305 C52.703,62.305 52.5,62.498 52.5,62.544 C52.5,62.59 52.703,62.783 53.108,62.783 L53.108,62.783 Z" id="Shape"></path>
                <path d="M48.674,62.783 C49.079,62.783 49.282,62.59 49.282,62.544 C49.282,62.498 49.079,62.305 48.674,62.305 C48.269,62.305 48.066,62.498 48.066,62.544 C48.066,62.59 48.269,62.783 48.674,62.783 L48.674,62.783 Z" id="Shape"></path>
                <path d="M44.239,62.783 C44.644,62.783 44.847,62.59 44.847,62.544 C44.847,62.498 44.644,62.305 44.239,62.305 C43.834,62.305 43.631,62.498 43.631,62.544 C43.631,62.59 43.834,62.783 44.239,62.783 L44.239,62.783 Z" id="Shape"></path>
                <path d="M39.805,62.783 C40.21,62.783 40.413,62.59 40.413,62.544 C40.413,62.498 40.21,62.305 39.805,62.305 C39.399,62.305 39.196,62.498 39.196,62.544 C39.196,62.59 39.398,62.783 39.805,62.783 L39.805,62.783 Z" id="Shape"></path>
                <path d="M35.369,62.783 C35.775,62.783 35.978,62.59 35.978,62.544 C35.978,62.498 35.775,62.305 35.369,62.305 C34.964,62.305 34.761,62.498 34.761,62.544 C34.761,62.59 34.964,62.783 35.369,62.783 L35.369,62.783 Z" id="Shape"></path>
                <path d="M30.935,62.783 C31.341,62.783 31.544,62.59 31.544,62.544 C31.544,62.498 31.341,62.305 30.935,62.305 C30.53,62.305 30.327,62.498 30.327,62.544 C30.327,62.59 30.529,62.783 30.935,62.783 L30.935,62.783 Z" id="Shape"></path>
                <path d="M26.5,62.783 C26.905,62.783 27.108,62.59 27.108,62.544 C27.108,62.498 26.905,62.305 26.5,62.305 C26.095,62.305 25.892,62.498 25.892,62.544 C25.892,62.59 26.095,62.783 26.5,62.783 L26.5,62.783 Z" id="Shape"></path>
                <path d="M22.065,62.783 C22.47,62.783 22.673,62.59 22.673,62.544 C22.673,62.498 22.47,62.305 22.065,62.305 C21.659,62.305 21.456,62.498 21.456,62.544 C21.456,62.59 21.659,62.783 22.065,62.783 L22.065,62.783 Z" id="Shape"></path>
                <path d="M17.631,62.783 C18.036,62.783 18.239,62.59 18.239,62.544 C18.239,62.498 18.036,62.305 17.631,62.305 C17.225,62.305 17.022,62.498 17.022,62.544 C17.022,62.59 17.225,62.783 17.631,62.783 L17.631,62.783 Z" id="Shape"></path>
                <path d="M55.326,66 C54.921,66 54.718,66.193 54.718,66.239 C54.718,66.284 54.921,66.478 55.326,66.478 C55.731,66.478 55.934,66.285 55.934,66.239 C55.935,66.193 55.731,66 55.326,66 L55.326,66 Z" id="Shape"></path>
                <path d="M59.761,66 C59.356,66 59.153,66.193 59.153,66.239 C59.153,66.284 59.356,66.478 59.761,66.478 C60.166,66.478 60.369,66.285 60.369,66.239 C60.369,66.193 60.166,66 59.761,66 L59.761,66 Z" id="Shape"></path>
                <path d="M62.718,64.261 C63.123,64.261 63.326,64.068 63.326,64.022 C63.326,63.976 63.123,63.783 62.718,63.783 C62.312,63.783 62.109,63.976 62.109,64.022 C62.108,64.067 62.312,64.261 62.718,64.261 L62.718,64.261 Z" id="Shape"></path>
                <path d="M61.979,69.696 C61.573,69.696 61.37,69.889 61.37,69.935 C61.37,69.981 61.573,70.174 61.979,70.174 C62.384,70.174 62.587,69.981 62.587,69.935 C62.587,69.889 62.384,69.696 61.979,69.696 L61.979,69.696 Z" id="Shape"></path>
                <path d="M57.544,69.696 C57.138,69.696 56.935,69.889 56.935,69.935 C56.935,69.981 57.138,70.174 57.544,70.174 C57.949,70.174 58.152,69.981 58.152,69.935 C58.152,69.889 57.949,69.696 57.544,69.696 L57.544,69.696 Z" id="Shape"></path>
                <path d="M53.108,69.696 C52.703,69.696 52.5,69.889 52.5,69.935 C52.5,69.981 52.703,70.174 53.108,70.174 C53.514,70.174 53.717,69.981 53.717,69.935 C53.718,69.889 53.515,69.696 53.108,69.696 L53.108,69.696 Z" id="Shape"></path>
                <path d="M48.674,69.696 C48.269,69.696 48.066,69.889 48.066,69.935 C48.066,69.981 48.269,70.174 48.674,70.174 C49.079,70.174 49.282,69.981 49.282,69.935 C49.282,69.889 49.079,69.696 48.674,69.696 L48.674,69.696 Z" id="Shape"></path>
                <path d="M43.631,69.935 C43.631,69.981 43.834,70.174 44.239,70.174 C44.644,70.174 44.847,69.981 44.847,69.935 C44.847,69.89 44.644,69.696 44.239,69.696 C43.834,69.696 43.631,69.889 43.631,69.935 L43.631,69.935 Z" id="Shape"></path>
                <path d="M38.456,69.935 C38.456,69.981 38.659,70.174 39.065,70.174 C39.47,70.174 39.673,69.981 39.673,69.935 C39.673,69.89 39.47,69.696 39.065,69.696 C38.659,69.696 38.456,69.889 38.456,69.935 L38.456,69.935 Z" id="Shape"></path>
                <path d="M34.021,69.935 C34.021,69.981 34.224,70.174 34.63,70.174 C35.035,70.174 35.238,69.981 35.238,69.935 C35.238,69.89 35.035,69.696 34.63,69.696 C34.225,69.696 34.021,69.889 34.021,69.935 L34.021,69.935 Z" id="Shape"></path>
                <path d="M29.456,69.696 C29.051,69.696 28.848,69.889 28.848,69.935 C28.848,69.981 29.051,70.174 29.456,70.174 C29.862,70.174 30.065,69.981 30.065,69.935 C30.065,69.889 29.862,69.696 29.456,69.696 L29.456,69.696 Z" id="Shape"></path>
                <path d="M25.631,69.935 C25.631,69.89 25.428,69.696 25.022,69.696 C24.617,69.696 24.414,69.889 24.414,69.935 C24.414,69.981 24.617,70.174 25.022,70.174 C25.428,70.174 25.631,69.98 25.631,69.935 L25.631,69.935 Z" id="Shape"></path>
                <path d="M20.587,69.696 C20.182,69.696 19.979,69.889 19.979,69.935 C19.979,69.981 20.182,70.174 20.587,70.174 C20.992,70.174 21.195,69.981 21.195,69.935 C21.195,69.889 20.992,69.696 20.587,69.696 L20.587,69.696 Z" id="Shape"></path>
                <path d="M15.413,69.696 C15.008,69.696 14.805,69.889 14.805,69.935 C14.805,69.981 15.008,70.174 15.413,70.174 C15.818,70.174 16.021,69.981 16.021,69.935 C16.021,69.889 15.818,69.696 15.413,69.696 L15.413,69.696 Z" id="Shape"></path>
                <path d="M10.979,69.696 C10.573,69.696 10.37,69.889 10.37,69.935 C10.37,69.981 10.573,70.174 10.979,70.174 C11.384,70.174 11.587,69.981 11.587,69.935 C11.587,69.889 11.384,69.696 10.979,69.696 L10.979,69.696 Z" id="Shape"></path>
                <path d="M50.892,66 C50.486,66 50.283,66.193 50.283,66.239 C50.283,66.284 50.486,66.478 50.892,66.478 C51.297,66.478 51.5,66.285 51.5,66.239 C51.5,66.193 51.297,66 50.892,66 L50.892,66 Z" id="Shape"></path>
                <path d="M46.718,66.239 C46.718,66.193 46.515,66 46.109,66 C45.704,66 45.501,66.193 45.501,66.239 C45.501,66.284 45.704,66.478 46.109,66.478 C46.515,66.478 46.718,66.285 46.718,66.239 L46.718,66.239 Z" id="Shape"></path>
                <path d="M41.392,66 C40.986,66 40.783,66.193 40.783,66.239 C40.783,66.284 40.986,66.478 41.392,66.478 C41.797,66.478 42,66.285 42,66.239 C42,66.193 41.797,66 41.392,66 L41.392,66 Z" id="Shape"></path>
                <path d="M36.848,66 C36.443,66 36.24,66.193 36.24,66.239 C36.24,66.284 36.443,66.478 36.848,66.478 C37.253,66.478 37.456,66.285 37.456,66.239 C37.456,66.193 37.253,66 36.848,66 L36.848,66 Z" id="Shape"></path>
                <path d="M32.413,66 C32.008,66 31.805,66.193 31.805,66.239 C31.805,66.284 32.008,66.478 32.413,66.478 C32.818,66.478 33.021,66.285 33.021,66.239 C33.021,66.193 32.818,66 32.413,66 L32.413,66 Z" id="Shape"></path>
                <path d="M27.239,66 C26.834,66 26.631,66.193 26.631,66.239 C26.631,66.284 26.834,66.478 27.239,66.478 C27.644,66.478 27.847,66.285 27.847,66.239 C27.848,66.193 27.645,66 27.239,66 L27.239,66 Z" id="Shape"></path>
                <path d="M22.805,66 C22.399,66 22.196,66.193 22.196,66.239 C22.196,66.284 22.399,66.478 22.805,66.478 C23.21,66.478 23.413,66.285 23.413,66.239 C23.413,66.193 23.21,66 22.805,66 L22.805,66 Z" id="Shape"></path>
                <path d="M18.369,66 C17.964,66 17.761,66.193 17.761,66.239 C17.761,66.284 17.964,66.478 18.369,66.478 C18.775,66.478 18.978,66.285 18.978,66.239 C18.979,66.193 18.775,66 18.369,66 L18.369,66 Z" id="Shape"></path>
                <path d="M14.544,66.239 C14.544,66.193 14.341,66 13.935,66 C13.53,66 13.327,66.193 13.327,66.239 C13.327,66.284 13.53,66.478 13.935,66.478 C14.341,66.478 14.544,66.285 14.544,66.239 L14.544,66.239 Z" id="Shape"></path>
                <path d="M55.565,37.174 L60,37.174 C60.276,37.174 60.5,36.95 60.5,36.674 L60.5,33.717 C60.5,33.441 60.276,33.217 60,33.217 L55.565,33.217 C55.289,33.217 55.065,33.441 55.065,33.717 L55.065,34.709 C55.043,34.706 55.023,34.696 55,34.696 L47.712,34.696 L25.244,34.696 L17.5,34.696 C17.477,34.696 17.457,34.706 17.435,34.709 L17.435,33.717 C17.435,33.441 17.211,33.217 16.935,33.217 L12.5,33.217 C12.224,33.217 12,33.441 12,33.717 L12,36.674 C12,36.95 12.224,37.174 12.5,37.174 L16.935,37.174 C17.211,37.174 17.435,36.95 17.435,36.674 L17.435,35.683 C17.457,35.686 17.477,35.696 17.5,35.696 L24.898,35.696 C25.089,36.224 25.307,36.737 25.563,37.225 L20.226,40.306 C19.987,40.444 19.905,40.75 20.043,40.989 C20.135,41.15 20.304,41.239 20.476,41.239 C20.561,41.239 20.647,41.218 20.726,41.172 L26.063,38.091 C26.269,38.417 26.492,38.729 26.726,39.032 L22.003,42.995 C21.791,43.172 21.764,43.488 21.941,43.699 C22.04,43.817 22.181,43.878 22.324,43.878 C22.437,43.878 22.552,43.839 22.645,43.761 L27.368,39.798 C27.627,40.083 27.899,40.353 28.182,40.611 L24.219,45.334 C24.041,45.545 24.069,45.861 24.281,46.038 C24.375,46.117 24.489,46.155 24.602,46.155 C24.745,46.155 24.886,46.094 24.985,45.976 L28.948,41.253 C29.252,41.488 29.564,41.71 29.889,41.916 L26.808,47.252 C26.669,47.491 26.751,47.797 26.991,47.935 C27.07,47.98 27.156,48.002 27.241,48.002 C27.413,48.002 27.582,47.913 27.674,47.752 L30.755,42.416 C31.095,42.594 31.442,42.758 31.798,42.904 L29.691,48.692 C29.596,48.951 29.73,49.238 29.99,49.333 C30.047,49.354 30.104,49.363 30.161,49.363 C30.365,49.363 30.557,49.237 30.631,49.034 L32.739,43.244 C33.103,43.36 33.475,43.455 33.852,43.536 L32.781,49.61 C32.733,49.882 32.915,50.141 33.186,50.189 C33.215,50.194 33.245,50.197 33.274,50.197 C33.511,50.197 33.722,50.027 33.765,49.784 L34.836,43.708 C35.213,43.758 35.595,43.79 35.981,43.806 L35.981,49.978 C35.981,50.254 36.205,50.478 36.481,50.478 C36.757,50.478 36.981,50.254 36.981,49.978 L36.981,43.806 C37.367,43.79 37.749,43.759 38.126,43.708 L39.197,49.784 C39.24,50.027 39.451,50.197 39.688,50.197 C39.717,50.197 39.747,50.195 39.776,50.189 C40.047,50.141 40.229,49.882 40.181,49.61 L39.111,43.536 C39.488,43.454 39.86,43.359 40.224,43.244 L42.331,49.034 C42.405,49.237 42.597,49.363 42.801,49.363 C42.858,49.363 42.915,49.353 42.972,49.333 C43.232,49.239 43.366,48.952 43.271,48.692 L41.165,42.904 C41.521,42.758 41.868,42.594 42.208,42.416 L45.289,47.752 C45.381,47.913 45.55,48.002 45.722,48.002 C45.807,48.002 45.893,47.981 45.972,47.935 C46.211,47.797 46.293,47.491 46.155,47.252 L43.074,41.916 C43.399,41.711 43.711,41.488 44.015,41.253 L47.977,45.976 C48.076,46.094 48.217,46.155 48.36,46.155 C48.473,46.155 48.588,46.116 48.681,46.038 C48.893,45.861 48.92,45.545 48.743,45.334 L44.78,40.611 C45.063,40.353 45.335,40.082 45.593,39.798 L50.316,43.761 C50.41,43.84 50.524,43.878 50.637,43.878 C50.78,43.878 50.921,43.817 51.02,43.699 C51.198,43.488 51.17,43.172 50.958,42.995 L46.234,39.032 C46.467,38.729 46.691,38.417 46.896,38.091 L52.232,41.172 C52.311,41.217 52.397,41.239 52.482,41.239 C52.654,41.239 52.823,41.15 52.915,40.989 C53.054,40.75 52.972,40.444 52.732,40.306 L47.395,37.225 C47.65,36.737 47.868,36.224 48.059,35.696 L55,35.696 C55.023,35.696 55.043,35.686 55.065,35.683 L55.065,36.674 C55.065,36.95 55.289,37.174 55.565,37.174 L55.565,37.174 Z M56.065,34.217 L59.5,34.217 L59.5,36.174 L56.065,36.174 L56.065,34.217 L56.065,34.217 Z M16.435,36.174 L13,36.174 L13,34.217 L16.435,34.217 L16.435,36.174 L16.435,36.174 Z" id="Shape"></path>
                <path d="M58.892,24.152 L56.196,24.152 L56.196,25.13 C56.196,25.406 55.972,25.63 55.696,25.63 L51.261,25.63 C50.985,25.63 50.761,25.406 50.761,25.13 L50.761,24.152 L22.195,24.152 L22.195,25.13 C22.195,25.406 21.971,25.63 21.695,25.63 L17.26,25.63 C16.984,25.63 16.76,25.406 16.76,25.13 L16.76,24.152 L14.065,24.152 L14.065,32 L58.891,32 L58.891,24.152 L58.892,24.152 Z" id="Shape"></path>
                <path d="M16.761,22.174 C16.761,21.898 16.985,21.674 17.261,21.674 L21.696,21.674 C21.972,21.674 22.196,21.898 22.196,22.174 L22.196,23.153 L50.761,23.153 L50.761,22.174 C50.761,21.898 50.985,21.674 51.261,21.674 L55.696,21.674 C55.972,21.674 56.196,21.898 56.196,22.174 L56.196,23.153 L58.892,23.153 L58.892,0.5 L14.065,0.5 L14.065,23.152 L16.76,23.152 L16.76,22.174 L16.761,22.174 Z M17.261,4.674 L55.696,4.674 C55.972,4.674 56.196,4.898 56.196,5.174 C56.196,5.45 55.972,5.674 55.696,5.674 L17.261,5.674 C16.985,5.674 16.761,5.45 16.761,5.174 C16.761,4.898 16.984,4.674 17.261,4.674 L17.261,4.674 Z M17.261,7.63 L55.696,7.63 C55.972,7.63 56.196,7.854 56.196,8.13 C56.196,8.406 55.972,8.63 55.696,8.63 L17.261,8.63 C16.985,8.63 16.761,8.406 16.761,8.13 C16.761,7.854 16.984,7.63 17.261,7.63 L17.261,7.63 Z M17.261,10.587 L55.696,10.587 C55.972,10.587 56.196,10.811 56.196,11.087 C56.196,11.363 55.972,11.587 55.696,11.587 L17.261,11.587 C16.985,11.587 16.761,11.363 16.761,11.087 C16.761,10.811 16.984,10.587 17.261,10.587 L17.261,10.587 Z M17.261,13.543 L55.696,13.543 C55.972,13.543 56.196,13.767 56.196,14.043 C56.196,14.319 55.972,14.543 55.696,14.543 L17.261,14.543 C16.985,14.543 16.761,14.319 16.761,14.043 C16.761,13.767 16.984,13.543 17.261,13.543 L17.261,13.543 Z" id="Shape"></path>
                <rect id="Rectangle-path" x="17.761" y="22.674" width="3.435" height="1.957"></rect>
                <rect id="Rectangle-path" x="51.761" y="22.674" width="3.435" height="1.957"></rect>
            </g>
        </g>
    </g>
</svg>