<?xml version="1.0" encoding="UTF-8" standalone="no"?>
<svg width="436px" height="477px" viewBox="0 0 436 477" version="1.1" xmlns="http://www.w3.org/2000/svg" xmlns:xlink="http://www.w3.org/1999/xlink">
    <!-- Generator: Sketch 3.7.2 (28276) - http://www.bohemiancoding.com/sketch -->
    <title>Group 16</title>
    <desc>Created with Sketch.</desc>
    <defs></defs>
    <g id="Page-1" stroke="none" stroke-width="1" fill="none" fill-rule="evenodd">
        <g id="Desktop-HD" transform="translate(-884.000000, -1390.000000)">
            <g id="Group-16" transform="translate(884.000000, 1390.000000)">
                <rect id="Rectangle-1" fill="#000000" x="247.027457" y="459.704756" width="188.28091" height="7.75828624"></rect>
                <polygon id="Path-1" fill="#000000" points="393.078957 463.267101 212.021419 0.913614962 206.898583 0.913614968 143.333257 163.881983 151.364439 163.883938 169.320305 118.970399 301.757281 463.267101"></polygon>
                <path d="M35.0101829,448.354639 C22.347668,467.926446 0.634816754,467.926449 0.634816754,467.926449 L0.634816754,474.328853 C0.634816754,474.328853 25.9139605,478.470711 50.1859831,475.581368 C73.0134348,472.318696 88.6849863,464.35235 88.6849863,464.35235 C88.6849863,464.35235 117.142711,448.455158 129.586757,426.673311 C142.030803,404.891464 151.244485,373.027872 151.244485,373.027872 C151.244485,373.027872 161.867862,331.60479 178.584266,301.758146 C191.436376,280.762208 212.76032,282.974753 212.76032,282.974753 L212.76032,276.544856 C212.76032,276.544856 185.420187,270.006884 154.643177,275.056743 C133.041226,276.544856 108.529837,296.629341 108.529837,296.629341 C108.529837,296.629341 85.3689529,318.808354 77.4948444,336.015635 C68.9252606,351.505664 58.8313464,386.4623 58.8313464,386.4623 C58.8313464,386.4623 45.5610273,433.585449 35.0101829,448.354639 Z" id="Path-2" fill="#000000"></path>
                <rect id="Rectangle-1" fill="#000000" x="245.124811" y="459.704756" width="188.28091" height="7.75828624"></rect>
                <rect id="Rectangle-1" fill="#000000" x="247.027457" y="459.704756" width="188.28091" height="7.75828624"></rect>
                <polygon id="Path-1" fill="#232223" points="393.078957 463.267101 212.021419 0.913614962 206.898583 0.913614968 143.333257 163.881983 151.364439 163.883938 169.320305 118.970399 301.757281 463.267101"></polygon>
                <path d="M35.0101829,448.354639 C22.347668,467.926446 0.634816754,467.926449 0.634816754,467.926449 L0.634816754,474.328853 C0.634816754,474.328853 25.9139605,478.470711 50.1859831,475.581368 C73.0134348,472.318696 88.6849863,464.35235 88.6849863,464.35235 C88.6849863,464.35235 117.142711,448.455158 129.586757,426.673311 C142.030803,404.891464 151.244485,373.027872 151.244485,373.027872 C151.244485,373.027872 161.867862,331.60479 178.584266,301.758146 C191.436376,280.762208 212.76032,282.974753 212.76032,282.974753 L212.76032,276.544856 C212.76032,276.544856 185.420187,270.006884 154.643177,275.056743 C133.041226,276.544856 108.529837,296.629341 108.529837,296.629341 C108.529837,296.629341 85.3689529,318.808354 77.4948444,336.015635 C68.9252606,351.505664 58.8313464,386.4623 58.8313464,386.4623 C58.8313464,386.4623 45.5610273,433.585449 35.0101829,448.354639 Z" id="Path-2" fill="#232323"></path>
                <rect id="Rectangle-1" fill="#232323" x="245.124811" y="459.704756" width="188.28091" height="7.75828624"></rect>
            </g>
        </g>
    </g>
</svg>