<?xml version="1.0" encoding="UTF-8"?>
<svg width="225px" height="279px" viewBox="0 0 225 279" version="1.1" xmlns="http://www.w3.org/2000/svg" xmlns:xlink="http://www.w3.org/1999/xlink">
    <!-- Generator: Sketch 40.3 (33839) - http://www.bohemiancoding.com/sketch -->
    <title>Group 23</title>
    <desc>Created with Sketch.</desc>
    <defs></defs>
    <g id="Page-1" stroke="none" stroke-width="1" fill="none" fill-rule="evenodd">
        <g id="Group-23" transform="translate(4.000000, 0.000000)">
            <path d="M0,216 C93.9570934,336.823012 202.969762,235.930353 202.969762,235.930353 L210.619047,228.871314" id="Path-10" stroke="#4A4A4A" stroke-width="7" stroke-linecap="round"></path>
            <path id="Path-10-decoration-1" d="M204.716773,238.400383 L210.619047,228.871314 L200.647665,233.991034" stroke="#4A4A4A" stroke-width="7" stroke-linecap="round"></path>
            <g id="Group-20" transform="translate(28.000000, 0.000000)" fill="#4A4A4A">
                <path d="M9.33,5.47 C8.6499966,4.63999585 7.810005,4.225 6.81,4.225 C6.3699978,4.225 5.96250187,4.3049992 5.5875,4.465 C5.21249812,4.6250008 4.89000135,4.84249863 4.62,5.1175 C4.34999865,5.39250138 4.13750077,5.7199981 3.9825,6.1 C3.82749922,6.4800019 3.75,6.8899978 3.75,7.33 C3.75,7.78000225 3.82749922,8.1949981 3.9825,8.575 C4.13750077,8.9550019 4.35249862,9.2849986 4.6275,9.565 C4.90250138,9.8450014 5.22499815,10.0649992 5.595,10.225 C5.96500185,10.3850008 6.36499785,10.465 6.795,10.465 C7.7350047,10.465 8.57999625,10.065004 9.33,9.265 L9.33,12.745 L9.03,12.85 C8.57999775,13.0100008 8.16000195,13.1274996 7.77,13.2025 C7.37999805,13.2775004 6.9950019,13.315 6.615,13.315 C5.8349961,13.315 5.08750358,13.1675015 4.3725,12.8725 C3.65749642,12.5774985 3.02750272,12.1625027 2.4825,11.6275 C1.93749728,11.0924973 1.50000165,10.4575037 1.17,9.7225 C0.83999835,8.98749633 0.675,8.18500435 0.675,7.315 C0.675,6.44499565 0.837498375,5.64750363 1.1625,4.9225 C1.48750162,4.19749637 1.92249727,3.57250263 2.4675,3.0475 C3.01250273,2.52249738 3.6449964,2.11250147 4.365,1.8175 C5.0850036,1.52249852 5.83999605,1.375 6.63,1.375 C7.08000225,1.375 7.52249782,1.42249952 7.9575,1.5175 C8.39250218,1.61250048 8.8499976,1.759999 9.33,1.96 L9.33,5.47 Z M15.48,9.115 C15.48,9.3750013 15.5274995,9.61249893 15.6225,9.8275 C15.7175005,10.0425011 15.8424992,10.2299992 15.9975,10.39 C16.1525008,10.5500008 16.3374989,10.6749996 16.5525,10.765 C16.7675011,10.8550005 16.9949988,10.9 17.235,10.9 C17.4750012,10.9 17.7024989,10.8550005 17.9175,10.765 C18.1325011,10.6749996 18.3174992,10.5500008 18.4725,10.39 C18.6275008,10.2299992 18.7524995,10.0425011 18.8475,9.8275 C18.9425005,9.61249893 18.99,9.38000125 18.99,9.13 C18.99,8.8899988 18.9425005,8.66250108 18.8475,8.4475 C18.7524995,8.23249893 18.6275008,8.0450008 18.4725,7.885 C18.3174992,7.7249992 18.1325011,7.60000045 17.9175,7.51 C17.7024989,7.41999955 17.4750012,7.375 17.235,7.375 C16.9949988,7.375 16.7675011,7.41999955 16.5525,7.51 C16.3374989,7.60000045 16.1525008,7.7249992 15.9975,7.885 C15.8424992,8.0450008 15.7175005,8.22999895 15.6225,8.44 C15.5274995,8.65000105 15.48,8.8749988 15.48,9.115 L15.48,9.115 Z M12.615,9.085 C12.615,8.51499715 12.7299989,7.98250247 12.96,7.4875 C13.1900012,6.99249752 13.509998,6.56250183 13.92,6.1975 C14.3300021,5.83249818 14.8174972,5.54500105 15.3825,5.335 C15.9475028,5.12499895 16.5649967,5.02 17.235,5.02 C17.8950033,5.02 18.5074972,5.12249897 19.0725,5.3275 C19.6375028,5.53250102 20.1274979,5.81749817 20.5425,6.1825 C20.9575021,6.54750182 21.2799989,6.98249747 21.51,7.4875 C21.7400012,7.99250253 21.855,8.54999695 21.855,9.16 C21.855,9.77000305 21.7375012,10.3274975 21.5025,10.8325 C21.2674988,11.3375025 20.9450021,11.7724982 20.535,12.1375 C20.124998,12.5025018 19.6325029,12.784999 19.0575,12.985 C18.4824971,13.185001 17.8600034,13.285 17.19,13.285 C16.5299967,13.285 15.9200028,13.185001 15.36,12.985 C14.7999972,12.784999 14.317502,12.5000018 13.9125,12.13 C13.507498,11.7599981 13.1900012,11.3175026 12.96,10.8025 C12.7299989,10.2874974 12.615,9.71500315 12.615,9.085 L12.615,9.085 Z M25.395,5.305 L28.11,5.305 L28.11,6.28 C28.4800019,5.82999775 28.8549981,5.52750077 29.235,5.3725 C29.6150019,5.21749923 30.0599975,5.14 30.57,5.14 C31.1100027,5.14 31.5724981,5.22749912 31.9575,5.4025 C32.342502,5.57750087 32.6699987,5.8249984 32.94,6.145 C33.1600011,6.4050013 33.3099996,6.6949984 33.39,7.015 C33.4700004,7.3350016 33.51,7.69999795 33.51,8.11 L33.51,13 L30.795,13 L30.795,9.115 C30.795,8.7349981 30.7675003,8.42750117 30.7125,8.1925 C30.6574998,7.95749882 30.5600007,7.7700007 30.42,7.63 C30.2999994,7.5099994 30.1650008,7.42500025 30.015,7.375 C29.8649993,7.32499975 29.7050009,7.3 29.535,7.3 C29.0749977,7.3 28.7225013,7.43749863 28.4775,7.7125 C28.2324988,7.98750137 28.11,8.37999745 28.11,8.89 L28.11,13 L25.395,13 L25.395,5.305 Z M37.3350001,5.305 L40.0500001,5.305 L40.0500001,6.28 C40.4200019,5.82999775 40.7949982,5.52750077 41.1750001,5.3725 C41.555002,5.21749923 41.9999975,5.14 42.5100001,5.14 C43.0500028,5.14 43.5124981,5.22749912 43.8975001,5.4025 C44.282502,5.57750087 44.6099987,5.8249984 44.8800001,6.145 C45.1000012,6.4050013 45.2499997,6.6949984 45.3300001,7.015 C45.4100005,7.3350016 45.4500001,7.69999795 45.4500001,8.11 L45.4500001,13 L42.7350001,13 L42.7350001,9.115 C42.7350001,8.7349981 42.7075003,8.42750117 42.6525001,8.1925 C42.5974998,7.95749882 42.5000008,7.7700007 42.3600001,7.63 C42.2399995,7.5099994 42.1050008,7.42500025 41.9550001,7.375 C41.8049993,7.32499975 41.6450009,7.3 41.4750001,7.3 C41.0149978,7.3 40.6625013,7.43749863 40.4175001,7.7125 C40.1724988,7.98750137 40.0500001,8.37999745 40.0500001,8.89 L40.0500001,13 L37.3350001,13 L37.3350001,5.305 Z M54.9000001,8.035 C54.8099996,7.6549981 54.6250015,7.35000115 54.3450001,7.12 C54.0649987,6.88999885 53.7250021,6.775 53.3250001,6.775 C52.904998,6.775 52.5625014,6.8849989 52.2975001,7.105 C52.0324988,7.3250011 51.8650004,7.634998 51.7950001,8.035 L54.9000001,8.035 Z M51.7200001,9.61 C51.7200001,10.7800058 52.2699946,11.365 53.3700001,11.365 C53.960003,11.365 54.4049986,11.1250024 54.7050001,10.645 L57.3300001,10.645 C56.7999974,12.4050088 55.4750107,13.285 53.3550001,13.285 C52.7049968,13.285 52.1100028,13.187501 51.5700001,12.9925 C51.0299974,12.797499 50.567502,12.5200018 50.1825001,12.16 C49.7974982,11.7999982 49.5000011,11.3700025 49.2900001,10.87 C49.079999,10.3699975 48.9750001,9.8100031 48.9750001,9.19 C48.9750001,8.5499968 49.0749991,7.97250258 49.2750001,7.4575 C49.4750011,6.94249742 49.7599982,6.5050018 50.1300001,6.145 C50.5000019,5.7849982 50.9474975,5.50750097 51.4725001,5.3125 C51.9975027,5.11749903 52.5899968,5.02 53.2500001,5.02 C53.9000033,5.02 54.4849975,5.11749903 55.0050001,5.3125 C55.5250027,5.50750097 55.9649983,5.78999815 56.3250001,6.16 C56.6850019,6.53000185 56.9599991,6.98249732 57.1500001,7.5175 C57.340001,8.05250268 57.4350001,8.65499665 57.4350001,9.325 L57.4350001,9.61 L51.7200001,9.61 Z M66.7650001,7.795 C66.2949977,7.4749984 65.8200025,7.315 65.3400001,7.315 C65.0799988,7.315 64.8375012,7.35999955 64.6125001,7.45 C64.387499,7.54000045 64.1900009,7.66749917 64.0200001,7.8325 C63.8499992,7.99750083 63.7175006,8.19249887 63.6225001,8.4175 C63.5274996,8.64250113 63.4800001,8.8949986 63.4800001,9.175 C63.4800001,9.44500135 63.5274996,9.69249887 63.6225001,9.9175 C63.7175006,10.1425011 63.8474993,10.3374992 64.0125001,10.5025 C64.1775009,10.6675008 64.3749989,10.7949996 64.6050001,10.885 C64.8350012,10.9750005 65.0799988,11.02 65.3400001,11.02 C65.8500026,11.02 66.3249979,10.8450017 66.7650001,10.495 L66.7650001,12.805 C66.0949967,13.0950015 65.4600031,13.24 64.8600001,13.24 C64.2999973,13.24 63.7675026,13.145001 63.2625001,12.955 C62.7574976,12.7649991 62.312502,12.4925018 61.9275001,12.1375 C61.5424982,11.7824982 61.2350012,11.3575025 61.0050001,10.8625 C60.7749989,10.3674975 60.6600001,9.81500305 60.6600001,9.205 C60.6600001,8.59499695 60.769999,8.03750252 60.9900001,7.5325 C61.2100012,7.02749748 61.5099982,6.59250182 61.8900001,6.2275 C62.270002,5.86249817 62.7224975,5.57750102 63.2475001,5.3725 C63.7725027,5.16749897 64.3349971,5.065 64.9350001,5.065 C65.5950034,5.065 66.2049973,5.2049986 66.7650001,5.485 L66.7650001,7.795 Z M73.3200001,7.57 L73.3200001,13 L70.6050001,13 L70.6050001,7.57 L69.7050001,7.57 L69.7050001,5.305 L70.6050001,5.305 L70.6050001,2.995 L73.3200001,2.995 L73.3200001,5.305 L74.8650001,5.305 L74.8650001,7.57 L73.3200001,7.57 Z M87.0750002,5.305 L88.9050002,9.25 L90.7650002,5.305 L93.7950002,5.305 L89.7900002,13 L87.9750002,13 L84.0150002,5.305 L87.0750002,5.305 Z M99.4200002,5.305 L99.4200002,13 L96.7050002,13 L96.7050002,5.305 L99.4200002,5.305 Z M96.5250002,2.35 C96.5250002,2.13999895 96.5649998,1.94250092 96.6450002,1.7575 C96.7250006,1.57249908 96.8349995,1.4100007 96.9750002,1.27 C97.1150009,1.1299993 97.2774992,1.0200004 97.4625002,0.94 C97.6475011,0.8599996 97.8449991,0.82 98.0550002,0.82 C98.2650012,0.82 98.4624992,0.8599996 98.6475002,0.94 C98.8325011,1.0200004 98.9949995,1.1299993 99.1350002,1.27 C99.2750009,1.4100007 99.3849998,1.57249908 99.4650002,1.7575 C99.5450006,1.94250092 99.5850002,2.13999895 99.5850002,2.35 C99.5850002,2.56000105 99.5450006,2.75749907 99.4650002,2.9425 C99.3849998,3.12750093 99.2750009,3.2899993 99.1350002,3.43 C98.9949995,3.5700007 98.8325011,3.6799996 98.6475002,3.76 C98.4624992,3.8400004 98.2650012,3.88 98.0550002,3.88 C97.8449991,3.88 97.6475011,3.8400004 97.4625002,3.76 C97.2774992,3.6799996 97.1150009,3.5700007 96.9750002,3.43 C96.8349995,3.2899993 96.7250006,3.12750093 96.6450002,2.9425 C96.5649998,2.75749907 96.5250002,2.56000105 96.5250002,2.35 L96.5250002,2.35 Z M105.78,9.13 C105.78,9.38000125 105.825,9.61249893 105.915,9.8275 C106.005001,10.0425011 106.127499,10.2299992 106.2825,10.39 C106.437501,10.5500008 106.622499,10.6749996 106.8375,10.765 C107.052501,10.8550005 107.284999,10.9 107.535,10.9 C107.775001,10.9 108.002499,10.8550005 108.2175,10.765 C108.432501,10.6749996 108.617499,10.5500008 108.7725,10.39 C108.927501,10.2299992 109.0525,10.045001 109.1475,9.835 C109.242501,9.62499895 109.29,9.4000012 109.29,9.16 C109.29,8.9199988 109.242501,8.69250108 109.1475,8.4775 C109.0525,8.26249892 108.927501,8.0750008 108.7725,7.915 C108.617499,7.7549992 108.432501,7.63000045 108.2175,7.54 C108.002499,7.44999955 107.775001,7.405 107.535,7.405 C107.284999,7.405 107.052501,7.44999955 106.8375,7.54 C106.622499,7.63000045 106.437501,7.7549992 106.2825,7.915 C106.127499,8.0750008 106.005001,8.25749898 105.915,8.4625 C105.825,8.66750103 105.78,8.8899988 105.78,9.13 L105.78,9.13 Z M109.2,5.305 L111.93,5.305 L111.93,13 L109.2,13 L109.2,12.145 C108.619997,12.8750036 107.835005,13.24 106.845,13.24 C106.284997,13.24 105.770003,13.137501 105.3,12.9325 C104.829998,12.727499 104.420002,12.4400019 104.07,12.07 C103.719998,11.6999982 103.447501,11.2650025 103.2525,10.765 C103.057499,10.2649975 102.96,9.72000295 102.96,9.13 C102.96,8.57999725 103.054999,8.05750247 103.245,7.5625 C103.435001,7.06749753 103.699998,6.63500185 104.04,6.265 C104.380002,5.89499815 104.784998,5.60250107 105.255,5.3875 C105.725003,5.17249892 106.244997,5.065 106.815,5.065 C107.775005,5.065 108.569997,5.39999665 109.2,6.07 L109.2,5.305 Z M7.065,33.175 C7.065,32.9349988 7.02000045,32.7075011 6.93,32.4925 C6.83999955,32.2774989 6.7150008,32.0900008 6.555,31.93 C6.3949992,31.7699992 6.21000105,31.6425005 6,31.5475 C5.78999895,31.4524995 5.56000125,31.405 5.31,31.405 C5.0699988,31.405 4.84500105,31.4499996 4.635,31.54 C4.42499895,31.6300004 4.24250077,31.7549992 4.0875,31.915 C3.93249922,32.0750008 3.80750047,32.2624989 3.7125,32.4775 C3.61749952,32.6925011 3.57,32.9199988 3.57,33.16 C3.57,33.4000012 3.61499955,33.624999 3.705,33.835 C3.79500045,34.045001 3.9199992,34.2274992 4.08,34.3825 C4.2400008,34.5375008 4.42749892,34.6624995 4.6425,34.7575 C4.85750108,34.8525005 5.0849988,34.9 5.325,34.9 C5.5650012,34.9 5.78999895,34.8550005 6,34.765 C6.21000105,34.6749996 6.39249922,34.5500008 6.5475,34.39 C6.70250077,34.2299992 6.82749952,34.045001 6.9225,33.835 C7.01750047,33.624999 7.065,33.4050012 7.065,33.175 L7.065,33.175 Z M3.645,24.55 L3.645,30.07 C4.2850032,29.3999966 5.0849952,29.065 6.045,29.065 C6.61500285,29.065 7.13749762,29.1724989 7.6125,29.3875 C8.08750237,29.6025011 8.49249832,29.8924982 8.8275,30.2575 C9.16250167,30.6225018 9.42499905,31.0524975 9.615,31.5475 C9.80500095,32.0425025 9.9,32.5699972 9.9,33.13 C9.9,33.7000028 9.80250097,34.2349975 9.6075,34.735 C9.41249903,35.2350025 9.14000175,35.6699981 8.79,36.04 C8.43999825,36.4100019 8.02750238,36.7024989 7.5525,36.9175 C7.07749762,37.1325011 6.56500275,37.24 6.015,37.24 C5.014995,37.24 4.2250029,36.8750036 3.645,36.145 L3.645,37 L0.93,37 L0.93,24.55 L3.645,24.55 Z M16.14,24.55 L16.14,37 L13.425,37 L13.425,24.55 L16.14,24.55 Z M22.695,29.305 L22.695,33.64 C22.695,34.5900047 23.1549954,35.065 24.075,35.065 C24.9950046,35.065 25.455,34.5900047 25.455,33.64 L25.455,29.305 L28.17,29.305 L28.17,34.165 C28.17,35.2050052 27.8275035,35.9849974 27.1425,36.505 C26.4574966,37.0250026 25.4350068,37.285 24.075,37.285 C22.7149932,37.285 21.6925035,37.0250026 21.0075,36.505 C20.3224966,35.9849974 19.98,35.2050052 19.98,34.165 L19.98,29.305 L22.695,29.305 Z M37.6200001,32.035 C37.5299996,31.6549981 37.3450015,31.3500012 37.0650001,31.12 C36.7849987,30.8899988 36.4450021,30.775 36.0450001,30.775 C35.624998,30.775 35.2825014,30.8849989 35.0175001,31.105 C34.7524987,31.3250011 34.5850004,31.634998 34.5150001,32.035 L37.6200001,32.035 Z M34.4400001,33.61 C34.4400001,34.7800058 34.9899946,35.365 36.0900001,35.365 C36.680003,35.365 37.1249986,35.1250024 37.4250001,34.645 L40.0500001,34.645 C39.5199974,36.4050088 38.1950107,37.285 36.0750001,37.285 C35.4249968,37.285 34.8300028,37.187501 34.2900001,36.9925 C33.7499974,36.797499 33.287502,36.5200018 32.9025001,36.16 C32.5174981,35.7999982 32.2200011,35.3700025 32.0100001,34.87 C31.799999,34.3699975 31.6950001,33.8100031 31.6950001,33.19 C31.6950001,32.5499968 31.7949991,31.9725026 31.9950001,31.4575 C32.1950011,30.9424974 32.4799982,30.5050018 32.8500001,30.145 C33.2200019,29.7849982 33.6674974,29.507501 34.1925001,29.3125 C34.7175027,29.117499 35.3099968,29.02 35.9700001,29.02 C36.6200033,29.02 37.2049975,29.117499 37.7250001,29.3125 C38.2450027,29.507501 38.6849983,29.7899981 39.0450001,30.16 C39.4050019,30.5300019 39.6799991,30.9824973 39.8700001,31.5175 C40.060001,32.0525027 40.1550001,32.6549966 40.1550001,33.325 L40.1550001,33.61 L34.4400001,33.61 Z M46.8150001,31.57 L46.8150001,37 L44.1000001,37 L44.1000001,31.57 L43.2000001,31.57 L43.2000001,29.305 L44.1000001,29.305 L44.1000001,26.995 L46.8150001,26.995 L46.8150001,29.305 L48.3600001,29.305 L48.3600001,31.57 L46.8150001,31.57 Z M54.0600001,33.115 C54.0600001,33.3750013 54.1074996,33.6124989 54.2025001,33.8275 C54.2975006,34.0425011 54.4224993,34.2299992 54.5775001,34.39 C54.7325009,34.5500008 54.917499,34.6749996 55.1325001,34.765 C55.3475012,34.8550005 55.5749989,34.9 55.8150001,34.9 C56.0550013,34.9 56.282499,34.8550005 56.4975001,34.765 C56.7125012,34.6749996 56.8974993,34.5500008 57.0525001,34.39 C57.2075009,34.2299992 57.3324996,34.0425011 57.4275001,33.8275 C57.5225006,33.6124989 57.5700001,33.3800012 57.5700001,33.13 C57.5700001,32.8899988 57.5225006,32.6625011 57.4275001,32.4475 C57.3324996,32.2324989 57.2075009,32.0450008 57.0525001,31.885 C56.8974993,31.7249992 56.7125012,31.6000005 56.4975001,31.51 C56.282499,31.4199996 56.0550013,31.375 55.8150001,31.375 C55.5749989,31.375 55.3475012,31.4199996 55.1325001,31.51 C54.917499,31.6000005 54.7325009,31.7249992 54.5775001,31.885 C54.4224993,32.0450008 54.2975006,32.2299989 54.2025001,32.44 C54.1074996,32.6500011 54.0600001,32.8749988 54.0600001,33.115 L54.0600001,33.115 Z M51.1950001,33.085 C51.1950001,32.5149971 51.3099989,31.9825025 51.5400001,31.4875 C51.7700012,30.9924975 52.089998,30.5625018 52.5000001,30.1975 C52.9100021,29.8324982 53.3974973,29.545001 53.9625001,29.335 C54.5275029,29.124999 55.1449967,29.02 55.8150001,29.02 C56.4750034,29.02 57.0874973,29.122499 57.6525001,29.3275 C58.2175029,29.532501 58.707498,29.8174982 59.1225001,30.1825 C59.5375022,30.5475018 59.8599989,30.9824975 60.0900001,31.4875 C60.3200012,31.9925025 60.4350001,32.5499969 60.4350001,33.16 C60.4350001,33.7700031 60.3175013,34.3274975 60.0825001,34.8325 C59.8474989,35.3375025 59.5250021,35.7724982 59.1150001,36.1375 C58.704998,36.5025018 58.212503,36.784999 57.6375001,36.985 C57.0624972,37.185001 56.4400034,37.285 55.7700001,37.285 C55.1099968,37.285 54.5000029,37.185001 53.9400001,36.985 C53.3799973,36.784999 52.8975021,36.5000018 52.4925001,36.13 C52.0874981,35.7599981 51.7700012,35.3175026 51.5400001,34.8025 C51.3099989,34.2874974 51.1950001,33.7150031 51.1950001,33.085 L51.1950001,33.085 Z M66.5400001,33.115 C66.5400001,33.3750013 66.5874996,33.6124989 66.6825001,33.8275 C66.7775006,34.0425011 66.9024993,34.2299992 67.0575001,34.39 C67.2125009,34.5500008 67.397499,34.6749996 67.6125001,34.765 C67.8275012,34.8550005 68.0549989,34.9 68.2950001,34.9 C68.5350013,34.9 68.762499,34.8550005 68.9775001,34.765 C69.1925012,34.6749996 69.3774993,34.5500008 69.5325001,34.39 C69.6875009,34.2299992 69.8124996,34.0425011 69.9075001,33.8275 C70.0025006,33.6124989 70.0500001,33.3800012 70.0500001,33.13 C70.0500001,32.8899988 70.0025006,32.6625011 69.9075001,32.4475 C69.8124996,32.2324989 69.6875009,32.0450008 69.5325001,31.885 C69.3774993,31.7249992 69.1925012,31.6000005 68.9775001,31.51 C68.762499,31.4199996 68.5350013,31.375 68.2950001,31.375 C68.0549989,31.375 67.8275012,31.4199996 67.6125001,31.51 C67.397499,31.6000005 67.2125009,31.7249992 67.0575001,31.885 C66.9024993,32.0450008 66.7775006,32.2299989 66.6825001,32.44 C66.5874996,32.6500011 66.5400001,32.8749988 66.5400001,33.115 L66.5400001,33.115 Z M63.6750001,33.085 C63.6750001,32.5149971 63.789999,31.9825025 64.0200001,31.4875 C64.2500013,30.9924975 64.5699981,30.5625018 64.9800001,30.1975 C65.3900022,29.8324982 65.8774973,29.545001 66.4425001,29.335 C67.0075029,29.124999 67.6249968,29.02 68.2950001,29.02 C68.9550034,29.02 69.5674973,29.122499 70.1325001,29.3275 C70.6975029,29.532501 71.187498,29.8174982 71.6025001,30.1825 C72.0175022,30.5475018 72.339999,30.9824975 72.5700001,31.4875 C72.8000013,31.9925025 72.9150001,32.5499969 72.9150001,33.16 C72.9150001,33.7700031 72.7975013,34.3274975 72.5625001,34.8325 C72.3274989,35.3375025 72.0050022,35.7724982 71.5950001,36.1375 C71.1849981,36.5025018 70.692503,36.784999 70.1175001,36.985 C69.5424972,37.185001 68.9200035,37.285 68.2500001,37.285 C67.5899968,37.285 66.9800029,37.185001 66.4200001,36.985 C65.8599973,36.784999 65.3775021,36.5000018 64.9725001,36.13 C64.5674981,35.7599981 64.2500013,35.3175026 64.0200001,34.8025 C63.789999,34.2874974 63.6750001,33.7150031 63.6750001,33.085 L63.6750001,33.085 Z M79.5300001,31.57 L79.5300001,37 L76.8150001,37 L76.8150001,31.57 L75.9150001,31.57 L75.9150001,29.305 L76.8150001,29.305 L76.8150001,26.995 L79.5300001,26.995 L79.5300001,29.305 L81.0750001,29.305 L81.0750001,31.57 L79.5300001,31.57 Z M84.4200002,24.55 L87.1350002,24.55 L87.1350002,30.28 C87.505002,29.8299978 87.8799983,29.5275008 88.2600002,29.3725 C88.6400021,29.2174992 89.0849976,29.14 89.5950002,29.14 C90.565005,29.14 91.2974977,29.4074973 91.7925002,29.9425 C92.2875026,30.4775027 92.5350002,31.1999954 92.5350002,32.11 L92.5350002,37 L89.8200002,37 L89.8200002,33.115 C89.8200002,32.7249981 89.7900005,32.4100012 89.7300002,32.17 C89.6699999,31.9299988 89.5700009,31.7450007 89.4300002,31.615 C89.189999,31.4049989 88.9000019,31.3 88.5600002,31.3 C88.0999979,31.3 87.7475014,31.4374986 87.5025002,31.7125 C87.2574989,31.9875014 87.1350002,32.3799974 87.1350002,32.89 L87.1350002,37 L84.4200002,37 L84.4200002,24.55 Z M106.47,31.57 L106.47,37 L103.755,37 L103.755,31.57 L102.855,31.57 L102.855,29.305 L103.755,29.305 L103.755,26.995 L106.47,26.995 L106.47,29.305 L108.015,29.305 L108.015,31.57 L106.47,31.57 Z M113.715,33.115 C113.715,33.3750013 113.7625,33.6124989 113.8575,33.8275 C113.952501,34.0425011 114.077499,34.2299992 114.2325,34.39 C114.387501,34.5500008 114.572499,34.6749996 114.7875,34.765 C115.002501,34.8550005 115.229999,34.9 115.47,34.9 C115.710001,34.9 115.937499,34.8550005 116.1525,34.765 C116.367501,34.6749996 116.552499,34.5500008 116.7075,34.39 C116.862501,34.2299992 116.9875,34.0425011 117.0825,33.8275 C117.177501,33.6124989 117.225,33.3800012 117.225,33.13 C117.225,32.8899988 117.177501,32.6625011 117.0825,32.4475 C116.9875,32.2324989 116.862501,32.0450008 116.7075,31.885 C116.552499,31.7249992 116.367501,31.6000005 116.1525,31.51 C115.937499,31.4199996 115.710001,31.375 115.47,31.375 C115.229999,31.375 115.002501,31.4199996 114.7875,31.51 C114.572499,31.6000005 114.387501,31.7249992 114.2325,31.885 C114.077499,32.0450008 113.952501,32.2299989 113.8575,32.44 C113.7625,32.6500011 113.715,32.8749988 113.715,33.115 L113.715,33.115 Z M110.85,33.085 C110.85,32.5149971 110.964999,31.9825025 111.195,31.4875 C111.425001,30.9924975 111.744998,30.5625018 112.155,30.1975 C112.565002,29.8324982 113.052497,29.545001 113.6175,29.335 C114.182503,29.124999 114.799997,29.02 115.47,29.02 C116.130004,29.02 116.742497,29.122499 117.3075,29.3275 C117.872503,29.532501 118.362498,29.8174982 118.7775,30.1825 C119.192502,30.5475018 119.514999,30.9824975 119.745,31.4875 C119.975001,31.9925025 120.09,32.5499969 120.09,33.16 C120.09,33.7700031 119.972501,34.3274975 119.7375,34.8325 C119.502499,35.3375025 119.180002,35.7724982 118.77,36.1375 C118.359998,36.5025018 117.867503,36.784999 117.2925,36.985 C116.717497,37.185001 116.095004,37.285 115.425,37.285 C114.764997,37.285 114.155003,37.185001 113.595,36.985 C113.034997,36.784999 112.552502,36.5000018 112.1475,36.13 C111.742498,35.7599981 111.425001,35.3175026 111.195,34.8025 C110.964999,34.2874974 110.85,33.7150031 110.85,33.085 L110.85,33.085 Z M133.74,31.57 L133.74,37 L131.025,37 L131.025,31.57 L130.125,31.57 L130.125,29.305 L131.025,29.305 L131.025,26.995 L133.74,26.995 L133.74,29.305 L135.285,29.305 L135.285,31.57 L133.74,31.57 Z M138.63,24.55 L141.345,24.55 L141.345,30.28 C141.715002,29.8299978 142.089998,29.5275008 142.47,29.3725 C142.850002,29.2174992 143.294998,29.14 143.805,29.14 C144.775005,29.14 145.507498,29.4074973 146.0025,29.9425 C146.497503,30.4775027 146.745,31.1999954 146.745,32.11 L146.745,37 L144.03,37 L144.03,33.115 C144.03,32.7249981 144.000001,32.4100012 143.94,32.17 C143.88,31.9299988 143.780001,31.7450007 143.64,31.615 C143.399999,31.4049989 143.110002,31.3 142.77,31.3 C142.309998,31.3 141.957501,31.4374986 141.7125,31.7125 C141.467499,31.9875014 141.345,32.3799974 141.345,32.89 L141.345,37 L138.63,37 L138.63,24.55 Z M156.195,32.035 C156.105,31.6549981 155.920002,31.3500012 155.64,31.12 C155.359999,30.8899988 155.020002,30.775 154.62,30.775 C154.199998,30.775 153.857502,30.8849989 153.5925,31.105 C153.327499,31.3250011 153.160001,31.634998 153.09,32.035 L156.195,32.035 Z M153.015,33.61 C153.015,34.7800058 153.564995,35.365 154.665,35.365 C155.255003,35.365 155.699999,35.1250024 156,34.645 L158.625,34.645 C158.094998,36.4050088 156.770011,37.285 154.65,37.285 C153.999997,37.285 153.405003,37.187501 152.865,36.9925 C152.324998,36.797499 151.862502,36.5200018 151.4775,36.16 C151.092498,35.7999982 150.795001,35.3700025 150.585,34.87 C150.374999,34.3699975 150.27,33.8100031 150.27,33.19 C150.27,32.5499968 150.369999,31.9725026 150.57,31.4575 C150.770001,30.9424974 151.054998,30.5050018 151.425,30.145 C151.795002,29.7849982 152.242498,29.507501 152.7675,29.3125 C153.292503,29.117499 153.884997,29.02 154.545,29.02 C155.195004,29.02 155.779998,29.117499 156.3,29.3125 C156.820003,29.507501 157.259998,29.7899981 157.62,30.16 C157.980002,30.5300019 158.254999,30.9824973 158.445,31.5175 C158.635001,32.0525027 158.73,32.6549966 158.73,33.325 L158.73,33.61 L153.015,33.61 Z M3.645,48.55 L3.645,61 L0.93,61 L0.93,48.55 L3.645,48.55 Z M10.2,53.305 L10.2,61 L7.48500002,61 L7.48500002,53.305 L10.2,53.305 Z M7.30500002,50.35 C7.30500002,50.1399989 7.34499962,49.9425009 7.42500002,49.7575 C7.50500042,49.5724991 7.61499932,49.4100007 7.75500002,49.27 C7.89500072,49.1299993 8.05749909,49.0200004 8.24250002,48.94 C8.42750094,48.8599996 8.62499897,48.82 8.83500002,48.82 C9.04500107,48.82 9.24249909,48.8599996 9.42750002,48.94 C9.61250094,49.0200004 9.77499932,49.1299993 9.91500002,49.27 C10.0550007,49.4100007 10.1649996,49.5724991 10.245,49.7575 C10.3250004,49.9425009 10.365,50.1399989 10.365,50.35 C10.365,50.5600011 10.3250004,50.7574991 10.245,50.9425 C10.1649996,51.1275009 10.0550007,51.2899993 9.91500002,51.43 C9.77499932,51.5700007 9.61250094,51.6799996 9.42750002,51.76 C9.24249909,51.8400004 9.04500107,51.88 8.83500002,51.88 C8.62499897,51.88 8.42750094,51.8400004 8.24250002,51.76 C8.05749909,51.6799996 7.89500072,51.5700007 7.75500002,51.43 C7.61499932,51.2899993 7.50500042,51.1275009 7.42500002,50.9425 C7.34499962,50.7574991 7.30500002,50.5600011 7.30500002,50.35 L7.30500002,50.35 Z M16.56,57.115 C16.56,57.3650013 16.6049996,57.5974989 16.695,57.8125 C16.7850005,58.0275011 16.9074993,58.2149992 17.0625,58.375 C17.2175008,58.5350008 17.402499,58.6599996 17.6175,58.75 C17.8325011,58.8400004 18.0649988,58.885 18.315,58.885 C18.5550012,58.885 18.782499,58.8400004 18.9975,58.75 C19.2125011,58.6599996 19.3974993,58.5350008 19.5525,58.375 C19.7075008,58.2149992 19.8324996,58.0275011 19.9275,57.8125 C20.0225005,57.5974989 20.07,57.3700012 20.07,57.13 C20.07,56.8799987 20.0225005,56.6500011 19.9275,56.44 C19.8324996,56.2299989 19.7050008,56.0450008 19.545,55.885 C19.3849992,55.7249992 19.1975011,55.6000005 18.9825,55.51 C18.767499,55.4199996 18.5450012,55.375 18.315,55.375 C18.0749988,55.375 17.8500011,55.4224995 17.64,55.5175 C17.429999,55.6125005 17.2450008,55.7374992 17.085,55.8925 C16.9249992,56.0475008 16.7975005,56.2299989 16.7025,56.44 C16.6074996,56.6500011 16.56,56.8749988 16.56,57.115 L16.56,57.115 Z M22.65,53.305 L22.65,60.475 C22.65,60.9050021 22.6250003,61.2899983 22.575,61.63 C22.5249998,61.9700017 22.4550005,62.2699987 22.365,62.53 C22.2449994,62.8600017 22.0575013,63.1674986 21.8025,63.4525 C21.5474988,63.7375014 21.2400018,63.9849989 20.88,64.195 C20.5199982,64.405001 20.1125023,64.5699994 19.6575,64.69 C19.2024978,64.8100006 18.7100027,64.87 18.18,64.87 C17.579997,64.87 17.0300025,64.7950008 16.53,64.645 C16.0299975,64.4949992 15.5925019,64.2875013 15.2175,64.0225 C14.8424982,63.7574987 14.5350012,63.4475018 14.295,63.0925 C14.0549988,62.7374982 13.8950004,62.3500021 13.815,61.93 L16.875,61.93 C17.065001,62.4400025 17.4949967,62.695 18.165,62.695 C18.7350029,62.695 19.1724985,62.5350016 19.4775,62.215 C19.7825016,61.8949984 19.935,61.4500028 19.935,60.88 L19.935,60.145 C19.734999,60.3350009 19.542501,60.4924994 19.3575,60.6175 C19.1724991,60.7425006 18.985001,60.8449996 18.795,60.925 C18.6049991,61.0050004 18.4050011,61.0624998 18.195,61.0975 C17.984999,61.1325002 17.7550013,61.15 17.505,61.15 C16.9549973,61.15 16.4500023,61.055001 15.99,60.865 C15.5299977,60.6749991 15.1325017,60.4100017 14.7975,60.07 C14.4624984,59.7299983 14.202501,59.3225024 14.0175,58.8475 C13.8324991,58.3724976 13.74,57.8450029 13.74,57.265 C13.74,56.6749971 13.839999,56.1275025 14.04,55.6225 C14.240001,55.1174975 14.5124983,54.6775019 14.8575,54.3025 C15.2025018,53.9274981 15.6124977,53.6325011 16.0875,53.4175 C16.5625024,53.2024989 17.0799972,53.095 17.64,53.095 C18.5500046,53.095 19.3149969,53.4349966 19.935,54.115 L19.935,53.305 L22.65,53.305 Z M26.4750001,48.55 L29.1900001,48.55 L29.1900001,54.28 C29.5600019,53.8299978 29.9349982,53.5275008 30.3150001,53.3725 C30.695002,53.2174992 31.1399975,53.14 31.6500001,53.14 C32.6200049,53.14 33.3524976,53.4074973 33.8475001,53.9425 C34.3425025,54.4775027 34.5900001,55.1999954 34.5900001,56.11 L34.5900001,61 L31.8750001,61 L31.8750001,57.115 C31.8750001,56.7249981 31.8450004,56.4100012 31.7850001,56.17 C31.7249998,55.9299988 31.6250008,55.7450007 31.4850001,55.615 C31.2449989,55.4049989 30.9550018,55.3 30.6150001,55.3 C30.1549978,55.3 29.8025013,55.4374986 29.5575001,55.7125 C29.3124988,55.9875014 29.1900001,56.3799974 29.1900001,56.89 L29.1900001,61 L26.4750001,61 L26.4750001,48.55 Z M41.4450001,55.57 L41.4450001,61 L38.7300001,61 L38.7300001,55.57 L37.8300001,55.57 L37.8300001,53.305 L38.7300001,53.305 L38.7300001,50.995 L41.4450001,50.995 L41.4450001,53.305 L42.9900001,53.305 L42.9900001,55.57 L41.4450001,55.57 Z M45.0600001,55.855 L49.3650001,55.855 L49.3650001,58.12 L45.0600001,58.12 L45.0600001,55.855 Z M54.9900001,53.305 L54.9900001,57.64 C54.9900001,58.5900047 55.4499955,59.065 56.3700001,59.065 C57.2900047,59.065 57.7500001,58.5900047 57.7500001,57.64 L57.7500001,53.305 L60.4650001,53.305 L60.4650001,58.165 C60.4650001,59.2050052 60.1225035,59.9849974 59.4375001,60.505 C58.7524967,61.0250026 57.7300069,61.285 56.3700001,61.285 C55.0099933,61.285 53.9875035,61.0250026 53.3025001,60.505 C52.6174967,59.9849974 52.2750001,59.2050052 52.2750001,58.165 L52.2750001,53.305 L54.9900001,53.305 Z M70.4250001,57.175 C70.4250001,56.9349988 70.3825006,56.7075011 70.2975001,56.4925 C70.2124997,56.2774989 70.0900009,56.0900008 69.9300001,55.93 C69.7699993,55.7699992 69.5825012,55.6425005 69.3675001,55.5475 C69.1524991,55.4524995 68.9200014,55.405 68.6700001,55.405 C68.4299989,55.405 68.2050012,55.4499996 67.9950001,55.54 C67.7849991,55.6300004 67.6025009,55.7549992 67.4475001,55.915 C67.2924994,56.0750008 67.1675006,56.2624989 67.0725001,56.4775 C66.9774997,56.6925011 66.9300001,56.9199988 66.9300001,57.16 C66.9300001,57.4000012 66.9749997,57.624999 67.0650001,57.835 C67.1550006,58.045001 67.2799993,58.2274992 67.4400001,58.3825 C67.6000009,58.5375008 67.7874991,58.6624995 68.0025001,58.7575 C68.2175012,58.8525005 68.4449989,58.9 68.6850001,58.9 C68.9250013,58.9 69.1499991,58.8550005 69.3600001,58.765 C69.5700012,58.6749996 69.7524994,58.5500008 69.9075001,58.39 C70.0625009,58.2299992 70.1874997,58.045001 70.2825001,57.835 C70.3775006,57.624999 70.4250001,57.4050012 70.4250001,57.175 L70.4250001,57.175 Z M67.0050001,64.84 L64.2900001,64.84 L64.2900001,53.305 L67.0050001,53.305 L67.0050001,54.16 C67.585003,53.4299963 68.3749951,53.065 69.3750001,53.065 C69.9250029,53.065 70.4374978,53.1724989 70.9125001,53.3875 C71.3875025,53.6025011 71.7999984,53.8949981 72.1500001,54.265 C72.5000019,54.6350018 72.7724992,55.0699975 72.9675001,55.57 C73.1625011,56.0700025 73.2600001,56.6049971 73.2600001,57.175 C73.2600001,57.7450028 73.1625011,58.2749976 72.9675001,58.765 C72.7724992,59.2550024 72.5025019,59.6849981 72.1575001,60.055 C71.8124984,60.4250018 71.4050025,60.714999 70.9350001,60.925 C70.4649978,61.1350011 69.9550029,61.24 69.4050001,61.24 C68.4449953,61.24 67.6450033,60.9100033 67.0050001,60.25 L67.0050001,64.84 Z M7.065,81.175 C7.065,80.9349988 7.02250043,80.7075011 6.9375,80.4925 C6.85249957,80.2774989 6.7300008,80.0900008 6.57,79.93 C6.4099992,79.7699992 6.22250107,79.6425005 6.0075,79.5475 C5.79249893,79.4524995 5.56000125,79.405 5.31,79.405 C5.0699988,79.405 4.84500105,79.4499996 4.635,79.54 C4.42499895,79.6300004 4.24250077,79.7549992 4.0875,79.915 C3.93249922,80.0750008 3.80750047,80.2624989 3.7125,80.4775 C3.61749952,80.6925011 3.57,80.9199988 3.57,81.16 C3.57,81.4000012 3.61499955,81.624999 3.705,81.835 C3.79500045,82.045001 3.9199992,82.2274992 4.08,82.3825 C4.2400008,82.5375008 4.42749892,82.6624995 4.6425,82.7575 C4.85750108,82.8525005 5.0849988,82.9 5.325,82.9 C5.5650012,82.9 5.78999895,82.8550005 6,82.765 C6.21000105,82.6749996 6.39249922,82.5500008 6.5475,82.39 C6.70250077,82.2299992 6.82749952,82.045001 6.9225,81.835 C7.01750047,81.624999 7.065,81.4050012 7.065,81.175 L7.065,81.175 Z M3.645,88.84 L0.93,88.84 L0.93,77.305 L3.645,77.305 L3.645,78.16 C4.2250029,77.4299963 5.014995,77.065 6.015,77.065 C6.56500275,77.065 7.07749762,77.1724989 7.5525,77.3875 C8.02750238,77.6025011 8.43999825,77.8949981 8.79,78.265 C9.14000175,78.6350018 9.41249903,79.0699975 9.6075,79.57 C9.80250097,80.0700025 9.9,80.6049971 9.9,81.175 C9.9,81.7450028 9.80250097,82.2749976 9.6075,82.765 C9.41249903,83.2550024 9.14250172,83.6849981 8.7975,84.055 C8.45249827,84.4250018 8.04500235,84.714999 7.575,84.925 C7.10499765,85.1350011 6.59500275,85.24 6.045,85.24 C5.0849952,85.24 4.2850032,84.9100033 3.645,84.25 L3.645,88.84 Z M13.425,72.55 L16.14,72.55 L16.14,78.28 C16.5100019,77.8299978 16.8849981,77.5275008 17.265,77.3725 C17.6450019,77.2174992 18.0899975,77.14 18.6,77.14 C19.5700049,77.14 20.3024975,77.4074973 20.7975,77.9425 C21.2925025,78.4775027 21.54,79.1999954 21.54,80.11 L21.54,85 L18.825,85 L18.825,81.115 C18.825,80.7249981 18.7950003,80.4100012 18.735,80.17 C18.6749997,79.9299988 18.5750007,79.7450007 18.435,79.615 C18.1949988,79.4049989 17.9050017,79.3 17.565,79.3 C17.1049977,79.3 16.7525012,79.4374986 16.5075,79.7125 C16.2624988,79.9875014 16.14,80.3799974 16.14,80.89 L16.14,85 L13.425,85 L13.425,72.55 Z M27.93,81.115 C27.93,81.3750013 27.9774996,81.6124989 28.0725,81.8275 C28.1675005,82.0425011 28.2924993,82.2299992 28.4475,82.39 C28.6025008,82.5500008 28.787499,82.6749996 29.0025,82.765 C29.2175011,82.8550005 29.4449988,82.9 29.685,82.9 C29.9250012,82.9 30.152499,82.8550005 30.3675,82.765 C30.5825011,82.6749996 30.7674993,82.5500008 30.9225,82.39 C31.0775008,82.2299992 31.2024996,82.0425011 31.2975,81.8275 C31.3925005,81.6124989 31.44,81.3800012 31.44,81.13 C31.44,80.8899988 31.3925005,80.6625011 31.2975,80.4475 C31.2024996,80.2324989 31.0775008,80.0450008 30.9225,79.885 C30.7674993,79.7249992 30.5825011,79.6000005 30.3675,79.51 C30.152499,79.4199996 29.9250012,79.375 29.685,79.375 C29.4449988,79.375 29.2175011,79.4199996 29.0025,79.51 C28.787499,79.6000005 28.6025008,79.7249992 28.4475,79.885 C28.2924993,80.0450008 28.1675005,80.2299989 28.0725,80.44 C27.9774996,80.6500011 27.93,80.8749988 27.93,81.115 L27.93,81.115 Z M25.065,81.085 C25.065,80.5149971 25.1799989,79.9825025 25.41,79.4875 C25.6400012,78.9924975 25.959998,78.5625018 26.37,78.1975 C26.7800021,77.8324982 27.2674972,77.545001 27.8325,77.335 C28.3975029,77.124999 29.0149967,77.02 29.685,77.02 C30.3450033,77.02 30.9574972,77.122499 31.5225,77.3275 C32.0875029,77.532501 32.577498,77.8174982 32.9925,78.1825 C33.4075021,78.5475018 33.7299989,78.9824975 33.96,79.4875 C34.1900012,79.9925025 34.305,80.5499969 34.305,81.16 C34.305,81.7700031 34.1875012,82.3274975 33.9525,82.8325 C33.7174989,83.3375025 33.3950021,83.7724982 32.985,84.1375 C32.574998,84.5025018 32.0825029,84.784999 31.5075,84.985 C30.9324972,85.185001 30.3100034,85.285 29.64,85.285 C28.9799967,85.285 28.3700028,85.185001 27.81,84.985 C27.2499972,84.784999 26.7675021,84.5000018 26.3625,84.13 C25.957498,83.7599981 25.6400012,83.3175026 25.41,82.8025 C25.1799989,82.2874974 25.065,81.7150031 25.065,81.085 L25.065,81.085 Z M40.9200001,79.57 L40.9200001,85 L38.2050001,85 L38.2050001,79.57 L37.3050001,79.57 L37.3050001,77.305 L38.2050001,77.305 L38.2050001,74.995 L40.9200001,74.995 L40.9200001,77.305 L42.4650001,77.305 L42.4650001,79.57 L40.9200001,79.57 Z M48.1650001,81.115 C48.1650001,81.3750013 48.2124996,81.6124989 48.3075001,81.8275 C48.4025006,82.0425011 48.5274993,82.2299992 48.6825001,82.39 C48.8375009,82.5500008 49.022499,82.6749996 49.2375001,82.765 C49.4525012,82.8550005 49.6799989,82.9 49.9200001,82.9 C50.1600013,82.9 50.387499,82.8550005 50.6025001,82.765 C50.8175012,82.6749996 51.0024993,82.5500008 51.1575001,82.39 C51.3125009,82.2299992 51.4374996,82.0425011 51.5325001,81.8275 C51.6275006,81.6124989 51.6750001,81.3800012 51.6750001,81.13 C51.6750001,80.8899988 51.6275006,80.6625011 51.5325001,80.4475 C51.4374996,80.2324989 51.3125009,80.0450008 51.1575001,79.885 C51.0024993,79.7249992 50.8175012,79.6000005 50.6025001,79.51 C50.387499,79.4199996 50.1600013,79.375 49.9200001,79.375 C49.6799989,79.375 49.4525012,79.4199996 49.2375001,79.51 C49.022499,79.6000005 48.8375009,79.7249992 48.6825001,79.885 C48.5274993,80.0450008 48.4025006,80.2299989 48.3075001,80.44 C48.2124996,80.6500011 48.1650001,80.8749988 48.1650001,81.115 L48.1650001,81.115 Z M45.3000001,81.085 C45.3000001,80.5149971 45.4149989,79.9825025 45.6450001,79.4875 C45.8750012,78.9924975 46.194998,78.5625018 46.6050001,78.1975 C47.0150021,77.8324982 47.5024973,77.545001 48.0675001,77.335 C48.6325029,77.124999 49.2499967,77.02 49.9200001,77.02 C50.5800034,77.02 51.1924973,77.122499 51.7575001,77.3275 C52.3225029,77.532501 52.812498,77.8174982 53.2275001,78.1825 C53.6425022,78.5475018 53.9649989,78.9824975 54.1950001,79.4875 C54.4250012,79.9925025 54.5400001,80.5499969 54.5400001,81.16 C54.5400001,81.7700031 54.4225013,82.3274975 54.1875001,82.8325 C53.9524989,83.3375025 53.6300021,83.7724982 53.2200001,84.1375 C52.809998,84.5025018 52.317503,84.784999 51.7425001,84.985 C51.1674972,85.185001 50.5450034,85.285 49.8750001,85.285 C49.2149968,85.285 48.6050029,85.185001 48.0450001,84.985 C47.4849973,84.784999 47.0025021,84.5000018 46.5975001,84.13 C46.1924981,83.7599981 45.8750012,83.3175026 45.6450001,82.8025 C45.4149989,82.2874974 45.3000001,81.7150031 45.3000001,81.085 L45.3000001,81.085 Z M61.0200001,79.57 L61.0200001,85 L58.3050001,85 L58.3050001,79.57 L57.3300001,79.57 L57.3300001,77.305 L58.3050001,77.305 L58.3050001,76.15 C58.3050001,75.5099968 58.3649995,75.0000019 58.4850001,74.62 C58.5850006,74.2999984 58.744999,74.0025014 58.9650001,73.7275 C59.1850012,73.4524986 59.4424986,73.215001 59.7375001,73.015 C60.0325016,72.814999 60.3499984,72.6600006 60.6900001,72.55 C61.0300018,72.4399994 61.3649984,72.385 61.6950001,72.385 C61.9250012,72.385 62.1374991,72.4099997 62.3325001,72.46 C62.5275011,72.5100003 62.7249991,72.5799996 62.9250001,72.67 L62.9250001,75.04 C62.7449992,74.9499996 62.5775009,74.8825002 62.4225001,74.8375 C62.2674993,74.7924998 62.1050009,74.77 61.9350001,74.77 C61.8249995,74.77 61.7125007,74.7874998 61.5975001,74.8225 C61.4824995,74.8575002 61.3750006,74.9299994 61.2750001,75.04 C61.1749996,75.1500006 61.1075003,75.307499 61.0725001,75.5125 C61.0374999,75.717501 61.0200001,75.9949983 61.0200001,76.345 L61.0200001,77.305 L62.9250001,77.305 L62.9250001,79.57 L61.0200001,79.57 Z M65.9250001,77.305 L68.6400001,77.305 L68.6400001,78.565 C68.9300016,78.1049977 69.284998,77.7525012 69.7050001,77.5075 C70.1250022,77.2624988 70.6149973,77.14 71.1750001,77.14 L71.4075001,77.14 C71.4925005,77.14 71.5899996,77.1499999 71.7000001,77.17 L71.7000001,79.765 C71.3399983,79.5849991 70.9500022,79.495 70.5300001,79.495 C69.899997,79.495 69.4275017,79.6824981 69.1125001,80.0575 C68.7974985,80.4325019 68.6400001,80.9799964 68.6400001,81.7 L68.6400001,85 L65.9250001,85 L65.9250001,77.305 Z M77.5050001,81.13 C77.5050001,81.3800012 77.5499997,81.6124989 77.6400001,81.8275 C77.7300006,82.0425011 77.8524994,82.2299992 78.0075001,82.39 C78.1625009,82.5500008 78.3474991,82.6749996 78.5625001,82.765 C78.7775012,82.8550005 79.0099989,82.9 79.2600001,82.9 C79.5000013,82.9 79.7274991,82.8550005 79.9425001,82.765 C80.1575012,82.6749996 80.3424994,82.5500008 80.4975001,82.39 C80.6525009,82.2299992 80.7774997,82.045001 80.8725001,81.835 C80.9675006,81.624999 81.0150001,81.4000012 81.0150001,81.16 C81.0150001,80.9199988 80.9675006,80.6925011 80.8725001,80.4775 C80.7774997,80.2624989 80.6525009,80.0750008 80.4975001,79.915 C80.3424994,79.7549992 80.1575012,79.6300004 79.9425001,79.54 C79.7274991,79.4499996 79.5000013,79.405 79.2600001,79.405 C79.0099989,79.405 78.7775012,79.4499996 78.5625001,79.54 C78.3474991,79.6300004 78.1625009,79.7549992 78.0075001,79.915 C77.8524994,80.0750008 77.7300006,80.257499 77.6400001,80.4625 C77.5499997,80.667501 77.5050001,80.8899988 77.5050001,81.13 L77.5050001,81.13 Z M80.9250001,77.305 L83.6550001,77.305 L83.6550001,85 L80.9250001,85 L80.9250001,84.145 C80.3449972,84.8750036 79.5600051,85.24 78.5700001,85.24 C78.0099973,85.24 77.4950025,85.137501 77.0250001,84.9325 C76.5549978,84.727499 76.1450019,84.4400019 75.7950001,84.07 C75.4449984,83.6999982 75.1725011,83.2650025 74.9775001,82.765 C74.7824992,82.2649975 74.6850001,81.7200029 74.6850001,81.13 C74.6850001,80.5799972 74.7799992,80.0575025 74.9700001,79.5625 C75.1600011,79.0674975 75.4249984,78.6350018 75.7650001,78.265 C76.1050018,77.8949981 76.5099978,77.6025011 76.9800001,77.3875 C77.4500025,77.1724989 77.9699973,77.065 78.5400001,77.065 C79.5000049,77.065 80.294997,77.3999966 80.9250001,78.07 L80.9250001,77.305 Z M87.4800002,77.305 L90.1950002,77.305 L90.1950002,78.25 C90.9350039,77.5399965 91.7649956,77.185 92.6850002,77.185 C93.8250059,77.185 94.6949972,77.6649952 95.2950002,78.625 C95.9050032,77.6549952 96.7749945,77.17 97.9050002,77.17 C98.265002,77.17 98.6049986,77.2224995 98.9250002,77.3275 C99.2450018,77.4325005 99.519999,77.5974989 99.7500002,77.8225 C99.9800013,78.0475011 100.162499,78.3399982 100.2975,78.7 C100.432501,79.0600018 100.5,79.4949974 100.5,80.005 L100.5,85 L97.7850002,85 L97.7850002,81.205 C97.7850002,80.8149981 97.7575004,80.4950013 97.7025002,80.245 C97.6474999,79.9949988 97.5675007,79.8000007 97.4625002,79.66 C97.3574996,79.5199993 97.2350009,79.4250003 97.0950002,79.375 C96.9549995,79.3249997 96.805001,79.3 96.6450002,79.3 C95.7749958,79.3 95.3400002,79.9349937 95.3400002,81.205 L95.3400002,85 L92.6250002,85 L92.6250002,81.205 C92.6250002,80.8149981 92.6000004,80.4925013 92.5500002,80.2375 C92.4999999,79.9824987 92.4275006,79.7800007 92.3325002,79.63 C92.2374997,79.4799993 92.1150009,79.3775003 91.9650002,79.3225 C91.8149994,79.2674997 91.6400012,79.24 91.4400002,79.24 C91.2699993,79.24 91.1100009,79.2649998 90.9600002,79.315 C90.8099994,79.3650002 90.6775007,79.4624993 90.5625002,79.6075 C90.4474996,79.7525007 90.3575005,79.9524987 90.2925002,80.2075 C90.2274998,80.4625013 90.1950002,80.7949979 90.1950002,81.205 L90.1950002,85 L87.4800002,85 L87.4800002,77.305 Z M109.965,80.035 C109.875,79.6549981 109.690002,79.3500012 109.41,79.12 C109.129999,78.8899988 108.790002,78.775 108.39,78.775 C107.969998,78.775 107.627501,78.8849989 107.3625,79.105 C107.097499,79.3250011 106.930001,79.634998 106.86,80.035 L109.965,80.035 Z M106.785,81.61 C106.785,82.7800058 107.334995,83.365 108.435,83.365 C109.025003,83.365 109.469999,83.1250024 109.77,82.645 L112.395,82.645 C111.864998,84.4050088 110.540011,85.285 108.42,85.285 C107.769997,85.285 107.175003,85.187501 106.635,84.9925 C106.094997,84.797499 105.632502,84.5200018 105.2475,84.16 C104.862498,83.7999982 104.565001,83.3700025 104.355,82.87 C104.144999,82.3699975 104.04,81.8100031 104.04,81.19 C104.04,80.5499968 104.139999,79.9725026 104.34,79.4575 C104.540001,78.9424974 104.824998,78.5050018 105.195,78.145 C105.565002,77.7849982 106.012498,77.507501 106.5375,77.3125 C107.062503,77.117499 107.654997,77.02 108.315,77.02 C108.965003,77.02 109.549998,77.117499 110.07,77.3125 C110.590003,77.507501 111.029998,77.7899982 111.39,78.16 C111.750002,78.5300019 112.024999,78.9824973 112.215,79.5175 C112.405001,80.0525027 112.5,80.6549966 112.5,81.325 L112.5,81.61 L106.785,81.61 Z M126.135,79.57 L126.135,85 L123.42,85 L123.42,79.57 L122.52,79.57 L122.52,77.305 L123.42,77.305 L123.42,74.995 L126.135,74.995 L126.135,77.305 L127.68,77.305 L127.68,79.57 L126.135,79.57 Z M133.38,81.115 C133.38,81.3750013 133.4275,81.6124989 133.5225,81.8275 C133.617501,82.0425011 133.742499,82.2299992 133.8975,82.39 C134.052501,82.5500008 134.237499,82.6749996 134.4525,82.765 C134.667501,82.8550005 134.894999,82.9 135.135,82.9 C135.375001,82.9 135.602499,82.8550005 135.8175,82.765 C136.032501,82.6749996 136.217499,82.5500008 136.3725,82.39 C136.527501,82.2299992 136.6525,82.0425011 136.7475,81.8275 C136.842501,81.6124989 136.89,81.3800012 136.89,81.13 C136.89,80.8899988 136.842501,80.6625011 136.7475,80.4475 C136.6525,80.2324989 136.527501,80.0450008 136.3725,79.885 C136.217499,79.7249992 136.032501,79.6000005 135.8175,79.51 C135.602499,79.4199996 135.375001,79.375 135.135,79.375 C134.894999,79.375 134.667501,79.4199996 134.4525,79.51 C134.237499,79.6000005 134.052501,79.7249992 133.8975,79.885 C133.742499,80.0450008 133.617501,80.2299989 133.5225,80.44 C133.4275,80.6500011 133.38,80.8749988 133.38,81.115 L133.38,81.115 Z M130.515,81.085 C130.515,80.5149971 130.629999,79.9825025 130.86,79.4875 C131.090001,78.9924975 131.409998,78.5625018 131.82,78.1975 C132.230002,77.8324982 132.717497,77.545001 133.2825,77.335 C133.847503,77.124999 134.464997,77.02 135.135,77.02 C135.795004,77.02 136.407497,77.122499 136.9725,77.3275 C137.537503,77.532501 138.027498,77.8174982 138.4425,78.1825 C138.857502,78.5475018 139.179999,78.9824975 139.41,79.4875 C139.640001,79.9925025 139.755,80.5499969 139.755,81.16 C139.755,81.7700031 139.637501,82.3274975 139.4025,82.8325 C139.167499,83.3375025 138.845002,83.7724982 138.435,84.1375 C138.024998,84.5025018 137.532503,84.784999 136.9575,84.985 C136.382497,85.185001 135.760004,85.285 135.09,85.285 C134.429997,85.285 133.820003,85.185001 133.26,84.985 C132.699997,84.784999 132.217502,84.5000018 131.8125,84.13 C131.407498,83.7599981 131.090001,83.3175026 130.86,82.8025 C130.629999,82.2874974 130.515,81.7150031 130.515,81.085 L130.515,81.085 Z M6.03,103.285 C5.5299975,103.024999 5.0400024,102.895 4.56,102.895 C4.30999875,102.895 4.10750078,102.945 3.9525,103.045 C3.79749923,103.145 3.72,103.279999 3.72,103.45 C3.72,103.54 3.73249988,103.6125 3.7575,103.6675 C3.78250012,103.7225 3.83749958,103.775 3.9225,103.825 C4.00750043,103.875 4.13249917,103.92 4.2975,103.96 C4.46250083,104 4.67999865,104.05 4.95,104.11 C5.70000375,104.260001 6.25999815,104.527498 6.63,104.9125 C7.00000185,105.297502 7.185,105.789997 7.185,106.39 C7.185,106.840002 7.0950009,107.244998 6.915,107.605 C6.7349991,107.965002 6.4850016,108.267499 6.165,108.5125 C5.8449984,108.757501 5.46000225,108.947499 5.01,109.0825 C4.55999775,109.217501 4.0650027,109.285 3.525,109.285 C2.4849948,109.285 1.46000505,108.990003 0.45,108.4 L1.44,106.48 C2.2000038,107.000003 2.9199966,107.26 3.6,107.26 C3.85000125,107.26 4.0549992,107.205001 4.215,107.095 C4.3750008,106.984999 4.455,106.845001 4.455,106.675 C4.455,106.574999 4.44250013,106.4925 4.4175,106.4275 C4.39249987,106.3625 4.3400004,106.3025 4.26,106.2475 C4.1799996,106.1925 4.06250077,106.1425 3.9075,106.0975 C3.75249923,106.0525 3.55000125,106.005 3.3,105.955 C2.4599958,105.784999 1.87250167,105.532502 1.5375,105.1975 C1.20249832,104.862498 1.035,104.400003 1.035,103.81 C1.035,103.379998 1.1149992,102.992502 1.275,102.6475 C1.4350008,102.302498 1.6649985,102.010001 1.965,101.77 C2.2650015,101.529999 2.62749787,101.345001 3.0525,101.215 C3.47750212,101.084999 3.9499974,101.02 4.47,101.02 C5.32000425,101.02 6.144996,101.184998 6.945,101.515 L6.03,103.285 Z M10.545,96.55 L13.26,96.55 L13.26,102.28 C13.6300019,101.829998 14.0049981,101.527501 14.385,101.3725 C14.7650019,101.217499 15.2099975,101.14 15.72,101.14 C16.6900049,101.14 17.4224975,101.407497 17.9175,101.9425 C18.4125025,102.477503 18.66,103.199995 18.66,104.11 L18.66,109 L15.945,109 L15.945,105.115 C15.945,104.724998 15.9150003,104.410001 15.855,104.17 C15.7949997,103.929999 15.6950007,103.745001 15.555,103.615 C15.3149988,103.404999 15.0250017,103.3 14.685,103.3 C14.2249977,103.3 13.8725012,103.437499 13.6275,103.7125 C13.3824988,103.987501 13.26,104.379997 13.26,104.89 L13.26,109 L10.545,109 L10.545,96.55 Z M25.05,105.115 C25.05,105.375001 25.0974996,105.612499 25.1925,105.8275 C25.2875005,106.042501 25.4124993,106.229999 25.5675,106.39 C25.7225008,106.550001 25.907499,106.675 26.1225,106.765 C26.3375011,106.855 26.5649988,106.9 26.805,106.9 C27.0450012,106.9 27.272499,106.855 27.4875,106.765 C27.7025011,106.675 27.8874993,106.550001 28.0425,106.39 C28.1975008,106.229999 28.3224996,106.042501 28.4175,105.8275 C28.5125005,105.612499 28.56,105.380001 28.56,105.13 C28.56,104.889999 28.5125005,104.662501 28.4175,104.4475 C28.3224996,104.232499 28.1975008,104.045001 28.0425,103.885 C27.8874993,103.724999 27.7025011,103.6 27.4875,103.51 C27.272499,103.42 27.0450012,103.375 26.805,103.375 C26.5649988,103.375 26.3375011,103.42 26.1225,103.51 C25.907499,103.6 25.7225008,103.724999 25.5675,103.885 C25.4124993,104.045001 25.2875005,104.229999 25.1925,104.44 C25.0974996,104.650001 25.05,104.874999 25.05,105.115 L25.05,105.115 Z M22.185,105.085 C22.185,104.514997 22.2999989,103.982502 22.53,103.4875 C22.7600012,102.992498 23.079998,102.562502 23.49,102.1975 C23.9000021,101.832498 24.3874972,101.545001 24.9525,101.335 C25.5175029,101.124999 26.1349967,101.02 26.805,101.02 C27.4650033,101.02 28.0774972,101.122499 28.6425,101.3275 C29.2075029,101.532501 29.697498,101.817498 30.1125,102.1825 C30.5275021,102.547502 30.8499989,102.982497 31.08,103.4875 C31.3100012,103.992503 31.425,104.549997 31.425,105.16 C31.425,105.770003 31.3075012,106.327497 31.0725,106.8325 C30.8374989,107.337503 30.5150021,107.772498 30.105,108.1375 C29.694998,108.502502 29.2025029,108.784999 28.6275,108.985 C28.0524972,109.185001 27.4300034,109.285 26.76,109.285 C26.0999967,109.285 25.4900028,109.185001 24.93,108.985 C24.3699972,108.784999 23.8875021,108.500002 23.4825,108.13 C23.077498,107.759998 22.7600012,107.317503 22.53,106.8025 C22.2999989,106.287497 22.185,105.715003 22.185,105.085 L22.185,105.085 Z M36.6750001,101.305 L38.5200001,105.355 L40.4400001,101.305 L42.1500001,101.305 L44.0700001,105.475 L46.0050001,101.305 L49.0200001,101.305 L45.0000001,109 L43.1850001,109 L41.2650001,104.785 L39.4350001,109 L37.5900001,109 L33.6450001,101.305 L36.6750001,101.305 Z M61.8000001,107.95 L58.0800001,101.305 L61.2300001,101.305 L63.2850001,105.25 L65.2800001,101.305 L68.4000001,101.305 L62.2200001,112.84 L59.1750001,112.84 L61.8000001,107.95 Z M73.4700001,105.115 C73.4700001,105.375001 73.5174996,105.612499 73.6125001,105.8275 C73.7075006,106.042501 73.8324993,106.229999 73.9875001,106.39 C74.1425009,106.550001 74.327499,106.675 74.5425001,106.765 C74.7575012,106.855 74.9849989,106.9 75.2250001,106.9 C75.4650013,106.9 75.692499,106.855 75.9075001,106.765 C76.1225012,106.675 76.3074993,106.550001 76.4625001,106.39 C76.6175009,106.229999 76.7424996,106.042501 76.8375001,105.8275 C76.9325006,105.612499 76.9800001,105.380001 76.9800001,105.13 C76.9800001,104.889999 76.9325006,104.662501 76.8375001,104.4475 C76.7424996,104.232499 76.6175009,104.045001 76.4625001,103.885 C76.3074993,103.724999 76.1225012,103.6 75.9075001,103.51 C75.692499,103.42 75.4650013,103.375 75.2250001,103.375 C74.9849989,103.375 74.7575012,103.42 74.5425001,103.51 C74.327499,103.6 74.1425009,103.724999 73.9875001,103.885 C73.8324993,104.045001 73.7075006,104.229999 73.6125001,104.44 C73.5174996,104.650001 73.4700001,104.874999 73.4700001,105.115 L73.4700001,105.115 Z M70.6050001,105.085 C70.6050001,104.514997 70.719999,103.982502 70.9500001,103.4875 C71.1800013,102.992498 71.4999981,102.562502 71.9100001,102.1975 C72.3200022,101.832498 72.8074973,101.545001 73.3725001,101.335 C73.9375029,101.124999 74.5549968,101.02 75.2250001,101.02 C75.8850034,101.02 76.4974973,101.122499 77.0625001,101.3275 C77.6275029,101.532501 78.117498,101.817498 78.5325001,102.1825 C78.9475022,102.547502 79.269999,102.982497 79.5000001,103.4875 C79.7300013,103.992503 79.8450001,104.549997 79.8450001,105.16 C79.8450001,105.770003 79.7275013,106.327497 79.4925001,106.8325 C79.2574989,107.337503 78.9350022,107.772498 78.5250001,108.1375 C78.1149981,108.502502 77.622503,108.784999 77.0475001,108.985 C76.4724972,109.185001 75.8500035,109.285 75.1800001,109.285 C74.5199968,109.285 73.9100029,109.185001 73.3500001,108.985 C72.7899973,108.784999 72.3075021,108.500002 71.9025001,108.13 C71.4974981,107.759998 71.1800013,107.317503 70.9500001,106.8025 C70.719999,106.287497 70.6050001,105.715003 70.6050001,105.085 L70.6050001,105.085 Z M86.1000001,101.305 L86.1000001,105.64 C86.1000001,106.590005 86.5599955,107.065 87.4800001,107.065 C88.4000047,107.065 88.8600001,106.590005 88.8600001,105.64 L88.8600001,101.305 L91.5750001,101.305 L91.5750001,106.165 C91.5750001,107.205005 91.2325036,107.984997 90.5475001,108.505 C89.8624967,109.025003 88.8400069,109.285 87.4800001,109.285 C86.1199933,109.285 85.0975036,109.025003 84.4125001,108.505 C83.7274967,107.984997 83.3850001,107.205005 83.3850001,106.165 L83.3850001,101.305 L86.1000001,101.305 Z M95.4000002,101.305 L98.1150002,101.305 L98.1150002,102.565 C98.4050016,102.104998 98.7599981,101.752501 99.1800002,101.5075 C99.6000023,101.262499 100.089997,101.14 100.65,101.14 L100.8825,101.14 C100.967501,101.14 101.065,101.15 101.175,101.17 L101.175,103.765 C100.814998,103.584999 100.425002,103.495 100.005,103.495 C99.374997,103.495 98.9025017,103.682498 98.5875002,104.0575 C98.2724986,104.432502 98.1150002,104.979996 98.1150002,105.7 L98.1150002,109 L95.4000002,109 L95.4000002,101.305 Z M0.93,120.55 L3.645,120.55 L3.645,126.28 C4.01500185,125.829998 4.3899981,125.527501 4.77,125.3725 C5.1500019,125.217499 5.59499745,125.14 6.105,125.14 C7.07500485,125.14 7.80749753,125.407497 8.3025,125.9425 C8.79750247,126.477503 9.045,127.199995 9.045,128.11 L9.045,133 L6.33,133 L6.33,129.115 C6.33,128.724998 6.3000003,128.410001 6.24,128.17 C6.1799997,127.929999 6.0800007,127.745001 5.94,127.615 C5.6999988,127.404999 5.4100017,127.3 5.07,127.3 C4.6099977,127.3 4.25750122,127.437499 4.0125,127.7125 C3.76749878,127.987501 3.645,128.379997 3.645,128.89 L3.645,133 L0.93,133 L0.93,120.55 Z M15.36,131.95 L11.64,125.305 L14.79,125.305 L16.845,129.25 L18.84,125.305 L21.96,125.305 L15.78,136.84 L12.735,136.84 L15.36,131.95 Z M27,129.13 C27,129.380001 27.0449996,129.612499 27.135,129.8275 C27.2250005,130.042501 27.3474993,130.229999 27.5025,130.39 C27.6575008,130.550001 27.842499,130.675 28.0575,130.765 C28.2725011,130.855 28.5049988,130.9 28.755,130.9 C28.9950012,130.9 29.222499,130.855 29.4375,130.765 C29.6525011,130.675 29.8374993,130.550001 29.9925,130.39 C30.1475008,130.229999 30.2724996,130.045001 30.3675,129.835 C30.4625005,129.624999 30.51,129.400001 30.51,129.16 C30.51,128.919999 30.4625005,128.692501 30.3675,128.4775 C30.2724996,128.262499 30.1475008,128.075001 29.9925,127.915 C29.8374993,127.754999 29.6525011,127.63 29.4375,127.54 C29.222499,127.45 28.9950012,127.405 28.755,127.405 C28.5149988,127.405 28.2875011,127.45 28.0725,127.54 C27.857499,127.63 27.6725008,127.754999 27.5175,127.915 C27.3624993,128.075001 27.2375005,128.257499 27.1425,128.4625 C27.0474996,128.667501 27,128.889999 27,129.13 L27,129.13 Z M30.42,120.55 L33.15,120.55 L33.15,133 L30.42,133 L30.42,132.145 C29.8399971,132.875004 29.055005,133.24 28.065,133.24 C27.5049972,133.24 26.9900024,133.135001 26.52,132.925 C26.0499977,132.714999 25.6400018,132.425002 25.29,132.055 C24.9399983,131.684998 24.667501,131.250002 24.4725,130.75 C24.2774991,130.249998 24.18,129.710003 24.18,129.13 C24.18,128.579997 24.2724991,128.057502 24.4575,127.5625 C24.642501,127.067498 24.9049983,126.635002 25.245,126.265 C25.5850017,125.894998 25.9924977,125.602501 26.4675,125.3875 C26.9425024,125.172499 27.4649972,125.065 28.035,125.065 C28.9950048,125.065 29.7899969,125.399997 30.42,126.07 L30.42,120.55 Z M36.9750001,125.305 L39.6900001,125.305 L39.6900001,126.565 C39.9800015,126.104998 40.334998,125.752501 40.7550001,125.5075 C41.1750022,125.262499 41.6649973,125.14 42.2250001,125.14 L42.4575001,125.14 C42.5425005,125.14 42.6399995,125.15 42.7500001,125.17 L42.7500001,127.765 C42.3899983,127.584999 42.0000022,127.495 41.5800001,127.495 C40.9499969,127.495 40.4775016,127.682498 40.1625001,128.0575 C39.8474985,128.432502 39.6900001,128.979996 39.6900001,129.7 L39.6900001,133 L36.9750001,133 L36.9750001,125.305 Z M48.5550001,129.13 C48.5550001,129.380001 48.5999996,129.612499 48.6900001,129.8275 C48.7800005,130.042501 48.9024993,130.229999 49.0575001,130.39 C49.2125009,130.550001 49.397499,130.675 49.6125001,130.765 C49.8275012,130.855 50.0599988,130.9 50.3100001,130.9 C50.5500013,130.9 50.777499,130.855 50.9925001,130.765 C51.2075012,130.675 51.3924993,130.550001 51.5475001,130.39 C51.7025009,130.229999 51.8274996,130.045001 51.9225001,129.835 C52.0175006,129.624999 52.0650001,129.400001 52.0650001,129.16 C52.0650001,128.919999 52.0175006,128.692501 51.9225001,128.4775 C51.8274996,128.262499 51.7025009,128.075001 51.5475001,127.915 C51.3924993,127.754999 51.2075012,127.63 50.9925001,127.54 C50.777499,127.45 50.5500013,127.405 50.3100001,127.405 C50.0599988,127.405 49.8275012,127.45 49.6125001,127.54 C49.397499,127.63 49.2125009,127.754999 49.0575001,127.915 C48.9024993,128.075001 48.7800005,128.257499 48.6900001,128.4625 C48.5999996,128.667501 48.5550001,128.889999 48.5550001,129.13 L48.5550001,129.13 Z M51.9750001,125.305 L54.7050001,125.305 L54.7050001,133 L51.9750001,133 L51.9750001,132.145 C51.3949972,132.875004 50.610005,133.24 49.6200001,133.24 C49.0599973,133.24 48.5450024,133.137501 48.0750001,132.9325 C47.6049977,132.727499 47.1950018,132.440002 46.8450001,132.07 C46.4949983,131.699998 46.2225011,131.265003 46.0275001,130.765 C45.8324991,130.264998 45.7350001,129.720003 45.7350001,129.13 C45.7350001,128.579997 45.8299991,128.057502 46.0200001,127.5625 C46.210001,127.067498 46.4749984,126.635002 46.8150001,126.265 C47.1550018,125.894998 47.5599977,125.602501 48.0300001,125.3875 C48.5000024,125.172499 49.0199972,125.065 49.5900001,125.065 C50.5500049,125.065 51.3449969,125.399997 51.9750001,126.07 L51.9750001,125.305 Z M61.5600001,127.57 L61.5600001,133 L58.8450001,133 L58.8450001,127.57 L57.9450001,127.57 L57.9450001,125.305 L58.8450001,125.305 L58.8450001,122.995 L61.5600001,122.995 L61.5600001,125.305 L63.1050001,125.305 L63.1050001,127.57 L61.5600001,127.57 Z M69.0300001,125.305 L69.0300001,133 L66.3150001,133 L66.3150001,125.305 L69.0300001,125.305 Z M66.1350001,122.35 C66.1350001,122.139999 66.1749997,121.942501 66.2550001,121.7575 C66.3350005,121.572499 66.4449994,121.410001 66.5850001,121.27 C66.7250008,121.129999 66.8874992,121.02 67.0725001,120.94 C67.257501,120.86 67.4549991,120.82 67.6650001,120.82 C67.8750012,120.82 68.0724992,120.86 68.2575001,120.94 C68.442501,121.02 68.6049994,121.129999 68.7450001,121.27 C68.8850008,121.410001 68.9949997,121.572499 69.0750001,121.7575 C69.1550005,121.942501 69.1950001,122.139999 69.1950001,122.35 C69.1950001,122.560001 69.1550005,122.757499 69.0750001,122.9425 C68.9949997,123.127501 68.8850008,123.289999 68.7450001,123.43 C68.6049994,123.570001 68.442501,123.68 68.2575001,123.76 C68.0724992,123.84 67.8750012,123.88 67.6650001,123.88 C67.4549991,123.88 67.257501,123.84 67.0725001,123.76 C66.8874992,123.68 66.7250008,123.570001 66.5850001,123.43 C66.4449994,123.289999 66.3350005,123.127501 66.2550001,122.9425 C66.1749997,122.757499 66.1350001,122.560001 66.1350001,122.35 L66.1350001,122.35 Z M75.4350001,129.115 C75.4350001,129.375001 75.4824997,129.612499 75.5775001,129.8275 C75.6725006,130.042501 75.7974994,130.229999 75.9525001,130.39 C76.1075009,130.550001 76.2924991,130.675 76.5075001,130.765 C76.7225012,130.855 76.9499989,130.9 77.1900001,130.9 C77.4300013,130.9 77.6574991,130.855 77.8725001,130.765 C78.0875012,130.675 78.2724994,130.550001 78.4275001,130.39 C78.5825009,130.229999 78.7074997,130.042501 78.8025001,129.8275 C78.8975006,129.612499 78.9450001,129.380001 78.9450001,129.13 C78.9450001,128.889999 78.8975006,128.662501 78.8025001,128.4475 C78.7074997,128.232499 78.5825009,128.045001 78.4275001,127.885 C78.2724994,127.724999 78.0875012,127.6 77.8725001,127.51 C77.6574991,127.42 77.4300013,127.375 77.1900001,127.375 C76.9499989,127.375 76.7225012,127.42 76.5075001,127.51 C76.2924991,127.6 76.1075009,127.724999 75.9525001,127.885 C75.7974994,128.045001 75.6725006,128.229999 75.5775001,128.44 C75.4824997,128.650001 75.4350001,128.874999 75.4350001,129.115 L75.4350001,129.115 Z M72.5700001,129.085 C72.5700001,128.514997 72.684999,127.982502 72.9150001,127.4875 C73.1450013,126.992498 73.4649981,126.562502 73.8750001,126.1975 C74.2850022,125.832498 74.7724973,125.545001 75.3375001,125.335 C75.902503,125.124999 76.5199968,125.02 77.1900001,125.02 C77.8500034,125.02 78.4624973,125.122499 79.0275001,125.3275 C79.592503,125.532501 80.0824981,125.817498 80.4975001,126.1825 C80.9125022,126.547502 81.234999,126.982497 81.4650001,127.4875 C81.6950013,127.992503 81.8100001,128.549997 81.8100001,129.16 C81.8100001,129.770003 81.6925013,130.327497 81.4575001,130.8325 C81.222499,131.337503 80.9000022,131.772498 80.4900001,132.1375 C80.0799981,132.502502 79.587503,132.784999 79.0125001,132.985 C78.4374973,133.185001 77.8150035,133.285 77.1450001,133.285 C76.4849968,133.285 75.8750029,133.185001 75.3150001,132.985 C74.7549973,132.784999 74.2725022,132.500002 73.8675001,132.13 C73.4624981,131.759998 73.1450013,131.317503 72.9150001,130.8025 C72.684999,130.287497 72.5700001,129.715003 72.5700001,129.085 L72.5700001,129.085 Z M85.3500002,125.305 L88.0650002,125.305 L88.0650002,126.28 C88.435002,125.829998 88.8099983,125.527501 89.1900002,125.3725 C89.5700021,125.217499 90.0149976,125.14 90.5250002,125.14 C91.0650029,125.14 91.5274982,125.227499 91.9125002,125.4025 C92.2975021,125.577501 92.6249988,125.824998 92.8950002,126.145 C93.1150013,126.405001 93.2649998,126.694998 93.3450002,127.015 C93.4250006,127.335002 93.4650002,127.699998 93.4650002,128.11 L93.4650002,133 L90.7500002,133 L90.7500002,129.115 C90.7500002,128.734998 90.7225004,128.427501 90.6675002,128.1925 C90.6124999,127.957499 90.5150009,127.770001 90.3750002,127.63 C90.2549996,127.509999 90.1200009,127.425 89.9700002,127.375 C89.8199994,127.325 89.660001,127.3 89.4900002,127.3 C89.0299979,127.3 88.6775014,127.437499 88.4325002,127.7125 C88.1874989,127.987501 88.0650002,128.379997 88.0650002,128.89 L88.0650002,133 L85.3500002,133 L85.3500002,125.305 Z M107.085,120.55 L107.085,133 L104.37,133 L104.37,120.55 L107.085,120.55 Z M116.55,128.035 C116.46,127.654998 116.275002,127.350001 115.995,127.12 C115.714999,126.889999 115.375002,126.775 114.975,126.775 C114.554998,126.775 114.212502,126.884999 113.9475,127.105 C113.682499,127.325001 113.515001,127.634998 113.445,128.035 L116.55,128.035 Z M113.37,129.61 C113.37,130.780006 113.919995,131.365 115.02,131.365 C115.610003,131.365 116.054999,131.125002 116.355,130.645 L118.98,130.645 C118.449998,132.405009 117.125011,133.285 115.005,133.285 C114.354997,133.285 113.760003,133.187501 113.22,132.9925 C112.679998,132.797499 112.217502,132.520002 111.8325,132.16 C111.447498,131.799998 111.150001,131.370002 110.94,130.87 C110.729999,130.369997 110.625,129.810003 110.625,129.19 C110.625,128.549997 110.724999,127.972503 110.925,127.4575 C111.125001,126.942497 111.409998,126.505002 111.78,126.145 C112.150002,125.784998 112.597498,125.507501 113.1225,125.3125 C113.647503,125.117499 114.239997,125.02 114.9,125.02 C115.550003,125.02 116.134998,125.117499 116.655,125.3125 C117.175003,125.507501 117.614998,125.789998 117.975,126.16 C118.335002,126.530002 118.609999,126.982497 118.8,127.5175 C118.990001,128.052503 119.085,128.654997 119.085,129.325 L119.085,129.61 L113.37,129.61 Z M124.38,125.305 L126.21,129.25 L128.07,125.305 L131.1,125.305 L127.095,133 L125.28,133 L121.32,125.305 L124.38,125.305 Z M139.275,128.035 C139.185,127.654998 139.000002,127.350001 138.72,127.12 C138.439999,126.889999 138.100002,126.775 137.7,126.775 C137.279998,126.775 136.937502,126.884999 136.6725,127.105 C136.407499,127.325001 136.240001,127.634998 136.17,128.035 L139.275,128.035 Z M136.095,129.61 C136.095,130.780006 136.644995,131.365 137.745,131.365 C138.335003,131.365 138.779999,131.125002 139.08,130.645 L141.705,130.645 C141.174998,132.405009 139.850011,133.285 137.73,133.285 C137.079997,133.285 136.485003,133.187501 135.945,132.9925 C135.404998,132.797499 134.942502,132.520002 134.5575,132.16 C134.172498,131.799998 133.875001,131.370002 133.665,130.87 C133.454999,130.369997 133.35,129.810003 133.35,129.19 C133.35,128.549997 133.449999,127.972503 133.65,127.4575 C133.850001,126.942497 134.134998,126.505002 134.505,126.145 C134.875002,125.784998 135.322498,125.507501 135.8475,125.3125 C136.372503,125.117499 136.964997,125.02 137.625,125.02 C138.275003,125.02 138.859998,125.117499 139.38,125.3125 C139.900003,125.507501 140.339998,125.789998 140.7,126.16 C141.060002,126.530002 141.334999,126.982497 141.525,127.5175 C141.715001,128.052503 141.81,128.654997 141.81,129.325 L141.81,129.61 L136.095,129.61 Z M148.05,120.55 L148.05,133 L145.335,133 L145.335,120.55 L148.05,120.55 Z M156.99,127.285 C156.489998,127.024999 156.000003,126.895 155.52,126.895 C155.269999,126.895 155.067501,126.944999 154.9125,127.045 C154.7575,127.145 154.68,127.279999 154.68,127.45 C154.68,127.54 154.6925,127.6125 154.7175,127.6675 C154.7425,127.7225 154.7975,127.775 154.8825,127.825 C154.967501,127.875 155.092499,127.92 155.2575,127.96 C155.422501,128 155.639999,128.05 155.91,128.11 C156.660004,128.260001 157.219998,128.527498 157.59,128.9125 C157.960002,129.297502 158.145,129.789997 158.145,130.39 C158.145,130.840002 158.055001,131.244998 157.875,131.605 C157.694999,131.965002 157.445002,132.267499 157.125,132.5125 C156.804999,132.757501 156.420003,132.947499 155.97,133.0825 C155.519998,133.217501 155.025003,133.285 154.485,133.285 C153.444995,133.285 152.420005,132.990003 151.41,132.4 L152.4,130.48 C153.160004,131.000003 153.879997,131.26 154.56,131.26 C154.810002,131.26 155.014999,131.205001 155.175,131.095 C155.335001,130.984999 155.415,130.845001 155.415,130.675 C155.415,130.574999 155.4025,130.4925 155.3775,130.4275 C155.3525,130.3625 155.300001,130.3025 155.22,130.2475 C155.14,130.1925 155.022501,130.1425 154.8675,130.0975 C154.7125,130.0525 154.510002,130.005 154.26,129.955 C153.419996,129.784999 152.832502,129.532502 152.4975,129.1975 C152.162499,128.862498 151.995,128.400003 151.995,127.81 C151.995,127.379998 152.074999,126.992502 152.235,126.6475 C152.395001,126.302498 152.624999,126.010001 152.925,125.77 C153.225002,125.529999 153.587498,125.345001 154.0125,125.215 C154.437502,125.084999 154.909998,125.02 155.43,125.02 C156.280005,125.02 157.104996,125.184998 157.905,125.515 L156.99,127.285 Z M3.645,149.305 L3.645,157 L0.93,157 L0.93,149.305 L3.645,149.305 Z M0.75,146.35 C0.75,146.139999 0.7899996,145.942501 0.87,145.7575 C0.9500004,145.572499 1.0599993,145.410001 1.2,145.27 C1.3400007,145.129999 1.50249907,145.02 1.6875,144.94 C1.87250093,144.86 2.06999895,144.82 2.28,144.82 C2.49000105,144.82 2.68749907,144.86 2.8725,144.94 C3.05750093,145.02 3.2199993,145.129999 3.36,145.27 C3.5000007,145.410001 3.6099996,145.572499 3.69,145.7575 C3.7700004,145.942501 3.81,146.139999 3.81,146.35 C3.81,146.560001 3.7700004,146.757499 3.69,146.9425 C3.6099996,147.127501 3.5000007,147.289999 3.36,147.43 C3.2199993,147.570001 3.05750093,147.68 2.8725,147.76 C2.68749907,147.84 2.49000105,147.88 2.28,147.88 C2.06999895,147.88 1.87250093,147.84 1.6875,147.76 C1.50249907,147.68 1.3400007,147.570001 1.2,147.43 C1.0599993,147.289999 0.9500004,147.127501 0.87,146.9425 C0.7899996,146.757499 0.75,146.560001 0.75,146.35 L0.75,146.35 Z M7.48500002,149.305 L10.2,149.305 L10.2,150.28 C10.5700019,149.829998 10.9449981,149.527501 11.325,149.3725 C11.7050019,149.217499 12.1499975,149.14 12.66,149.14 C13.2000027,149.14 13.6624981,149.227499 14.0475,149.4025 C14.4325019,149.577501 14.7599987,149.824998 15.03,150.145 C15.2500011,150.405001 15.3999996,150.694998 15.48,151.015 C15.5600004,151.335002 15.6,151.699998 15.6,152.11 L15.6,157 L12.885,157 L12.885,153.115 C12.885,152.734998 12.8575003,152.427501 12.8025,152.1925 C12.7474997,151.957499 12.6500007,151.770001 12.51,151.63 C12.3899994,151.509999 12.2550008,151.425 12.105,151.375 C11.9549993,151.325 11.7950009,151.3 11.625,151.3 C11.1649977,151.3 10.8125012,151.437499 10.5675,151.7125 C10.3224988,151.987501 10.2,152.379997 10.2,152.89 L10.2,157 L7.48500002,157 L7.48500002,149.305 Z M29.0250001,153.13 C29.0250001,153.380001 29.0699996,153.612499 29.1600001,153.8275 C29.2500005,154.042501 29.3724993,154.229999 29.5275001,154.39 C29.6825008,154.550001 29.867499,154.675 30.0825001,154.765 C30.2975011,154.855 30.5299988,154.9 30.7800001,154.9 C31.0200013,154.9 31.247499,154.855 31.4625001,154.765 C31.6775011,154.675 31.8624993,154.550001 32.0175001,154.39 C32.1725008,154.229999 32.2974996,154.045001 32.3925001,153.835 C32.4875005,153.624999 32.5350001,153.400001 32.5350001,153.16 C32.5350001,152.919999 32.4875005,152.692501 32.3925001,152.4775 C32.2974996,152.262499 32.1725008,152.075001 32.0175001,151.915 C31.8624993,151.754999 31.6775011,151.63 31.4625001,151.54 C31.247499,151.45 31.0200013,151.405 30.7800001,151.405 C30.5299988,151.405 30.2975011,151.45 30.0825001,151.54 C29.867499,151.63 29.6825008,151.754999 29.5275001,151.915 C29.3724993,152.075001 29.2500005,152.257499 29.1600001,152.4625 C29.0699996,152.667501 29.0250001,152.889999 29.0250001,153.13 L29.0250001,153.13 Z M32.4450001,149.305 L35.1750001,149.305 L35.1750001,157 L32.4450001,157 L32.4450001,156.145 C31.8649972,156.875004 31.080005,157.24 30.0900001,157.24 C29.5299973,157.24 29.0150024,157.137501 28.5450001,156.9325 C28.0749977,156.727499 27.6650018,156.440002 27.3150001,156.07 C26.9649983,155.699998 26.692501,155.265003 26.4975001,154.765 C26.3024991,154.264998 26.2050001,153.720003 26.2050001,153.13 C26.2050001,152.579997 26.2999991,152.057502 26.4900001,151.5625 C26.680001,151.067498 26.9449984,150.635002 27.2850001,150.265 C27.6250018,149.894998 28.0299977,149.602501 28.5000001,149.3875 C28.9700024,149.172499 29.4899972,149.065 30.0600001,149.065 C31.0200049,149.065 31.8149969,149.399997 32.4450001,150.07 L32.4450001,149.305 Z M51.1800001,151.285 C50.6799976,151.024999 50.1900025,150.895 49.7100001,150.895 C49.4599988,150.895 49.2575009,150.944999 49.1025001,151.045 C48.9474993,151.145 48.8700001,151.279999 48.8700001,151.45 C48.8700001,151.54 48.8825,151.6125 48.9075001,151.6675 C48.9325002,151.7225 48.9874997,151.775 49.0725001,151.825 C49.1575005,151.875 49.2824993,151.92 49.4475001,151.96 C49.6125009,152 49.8299987,152.05 50.1000001,152.11 C50.8500038,152.260001 51.4099982,152.527498 51.7800001,152.9125 C52.1500019,153.297502 52.3350001,153.789997 52.3350001,154.39 C52.3350001,154.840002 52.245001,155.244998 52.0650001,155.605 C51.8849992,155.965002 51.6350017,156.267499 51.3150001,156.5125 C50.9949985,156.757501 50.6100023,156.947499 50.1600001,157.0825 C49.7099978,157.217501 49.2150028,157.285 48.6750001,157.285 C47.6349949,157.285 46.6100051,156.990003 45.6000001,156.4 L46.5900001,154.48 C47.3500039,155.000003 48.0699967,155.26 48.7500001,155.26 C49.0000013,155.26 49.2049993,155.205001 49.3650001,155.095 C49.5250009,154.984999 49.6050001,154.845001 49.6050001,154.675 C49.6050001,154.574999 49.5925002,154.4925 49.5675001,154.4275 C49.5425,154.3625 49.4900005,154.3025 49.4100001,154.2475 C49.3299997,154.1925 49.2125009,154.1425 49.0575001,154.0975 C48.9024993,154.0525 48.7000013,154.005 48.4500001,153.955 C47.6099959,153.784999 47.0225018,153.532502 46.6875001,153.1975 C46.3524984,152.862498 46.1850001,152.400003 46.1850001,151.81 C46.1850001,151.379998 46.2649993,150.992502 46.4250001,150.6475 C46.5850009,150.302498 46.8149986,150.010001 47.1150001,149.77 C47.4150016,149.529999 47.777498,149.345001 48.2025001,149.215 C48.6275022,149.084999 49.0999975,149.02 49.6200001,149.02 C50.4700043,149.02 51.2949961,149.184998 52.0950001,149.515 L51.1800001,151.285 Z M58.9350001,151.57 L58.9350001,157 L56.2200001,157 L56.2200001,151.57 L55.3200001,151.57 L55.3200001,149.305 L56.2200001,149.305 L56.2200001,146.995 L58.9350001,146.995 L58.9350001,149.305 L60.4800001,149.305 L60.4800001,151.57 L58.9350001,151.57 Z M66.2700001,155.95 L62.5500001,149.305 L65.7000001,149.305 L67.7550001,153.25 L69.7500001,149.305 L72.8700001,149.305 L66.6900001,160.84 L63.6450001,160.84 L66.2700001,155.95 Z M78.6450002,144.55 L78.6450002,157 L75.9300002,157 L75.9300002,144.55 L78.6450002,144.55 Z M85.2000002,149.305 L85.2000002,157 L82.4850002,157 L82.4850002,149.305 L85.2000002,149.305 Z M82.3050002,146.35 C82.3050002,146.139999 82.3449998,145.942501 82.4250002,145.7575 C82.5050006,145.572499 82.6149995,145.410001 82.7550002,145.27 C82.8950009,145.129999 83.0574992,145.02 83.2425002,144.94 C83.4275011,144.86 83.6249991,144.82 83.8350002,144.82 C84.0450012,144.82 84.2424992,144.86 84.4275002,144.94 C84.6125011,145.02 84.7749995,145.129999 84.9150002,145.27 C85.0550009,145.410001 85.1649998,145.572499 85.2450002,145.7575 C85.3250006,145.942501 85.3650002,146.139999 85.3650002,146.35 C85.3650002,146.560001 85.3250006,146.757499 85.2450002,146.9425 C85.1649998,147.127501 85.0550009,147.289999 84.9150002,147.43 C84.7749995,147.570001 84.6125011,147.68 84.4275002,147.76 C84.2424992,147.84 84.0450012,147.88 83.8350002,147.88 C83.6249991,147.88 83.4275011,147.84 83.2425002,147.76 C83.0574992,147.68 82.8950009,147.570001 82.7550002,147.43 C82.6149995,147.289999 82.5050006,147.127501 82.4250002,146.9425 C82.3449998,146.757499 82.3050002,146.560001 82.3050002,146.35 L82.3050002,146.35 Z M94.1400002,151.285 C93.6399977,151.024999 93.1500026,150.895 92.6700002,150.895 C92.4199989,150.895 92.217501,150.944999 92.0625002,151.045 C91.9074994,151.145 91.8300002,151.279999 91.8300002,151.45 C91.8300002,151.54 91.8425001,151.6125 91.8675002,151.6675 C91.8925003,151.7225 91.9474998,151.775 92.0325002,151.825 C92.1175006,151.875 92.2424994,151.92 92.4075002,151.96 C92.572501,152 92.7899988,152.05 93.0600002,152.11 C93.8100039,152.260001 94.3699983,152.527498 94.7400002,152.9125 C95.110002,153.297502 95.2950002,153.789997 95.2950002,154.39 C95.2950002,154.840002 95.2050011,155.244998 95.0250002,155.605 C94.8449993,155.965002 94.5950018,156.267499 94.2750002,156.5125 C93.9549986,156.757501 93.5700024,156.947499 93.1200002,157.0825 C92.6699979,157.217501 92.1750029,157.285 91.6350002,157.285 C90.594995,157.285 89.5700052,156.990003 88.5600002,156.4 L89.5500002,154.48 C90.310004,155.000003 91.0299968,155.26 91.7100002,155.26 C91.9600014,155.26 92.1649994,155.205001 92.3250002,155.095 C92.485001,154.984999 92.5650002,154.845001 92.5650002,154.675 C92.5650002,154.574999 92.5525003,154.4925 92.5275002,154.4275 C92.5025001,154.3625 92.4500006,154.3025 92.3700002,154.2475 C92.2899998,154.1925 92.172501,154.1425 92.0175002,154.0975 C91.8624994,154.0525 91.6600014,154.005 91.4100002,153.955 C90.569996,153.784999 89.9825019,153.532502 89.6475002,153.1975 C89.3124985,152.862498 89.1450002,152.400003 89.1450002,151.81 C89.1450002,151.379998 89.2249994,150.992502 89.3850002,150.6475 C89.545001,150.302498 89.7749987,150.010001 90.0750002,149.77 C90.3750017,149.529999 90.7374981,149.345001 91.1625002,149.215 C91.5875023,149.084999 92.0599976,149.02 92.5800002,149.02 C93.4300044,149.02 94.2549962,149.184998 95.0550002,149.515 L94.1400002,151.285 Z M98.6550002,144.55 L101.37,144.55 L101.37,150.28 C101.740002,149.829998 102.114998,149.527501 102.495,149.3725 C102.875002,149.217499 103.319998,149.14 103.83,149.14 C104.800005,149.14 105.532498,149.407497 106.0275,149.9425 C106.522503,150.477503 106.77,151.199995 106.77,152.11 L106.77,157 L104.055,157 L104.055,153.115 C104.055,152.724998 104.025001,152.410001 103.965,152.17 C103.905,151.929999 103.805001,151.745001 103.665,151.615 C103.424999,151.404999 103.135002,151.3 102.795,151.3 C102.334998,151.3 101.982501,151.437499 101.7375,151.7125 C101.492499,151.987501 101.37,152.379997 101.37,152.89 L101.37,157 L98.6550002,157 L98.6550002,144.55 Z M119.775,149.305 L121.62,153.355 L123.54,149.305 L125.25,149.305 L127.17,153.475 L129.105,149.305 L132.12,149.305 L128.1,157 L126.285,157 L124.365,152.785 L122.535,157 L120.69,157 L116.745,149.305 L119.775,149.305 Z M137.175,153.13 C137.175,153.380001 137.22,153.612499 137.31,153.8275 C137.400001,154.042501 137.522499,154.229999 137.6775,154.39 C137.832501,154.550001 138.017499,154.675 138.2325,154.765 C138.447501,154.855 138.679999,154.9 138.93,154.9 C139.170001,154.9 139.397499,154.855 139.6125,154.765 C139.827501,154.675 140.012499,154.550001 140.1675,154.39 C140.322501,154.229999 140.4475,154.045001 140.5425,153.835 C140.637501,153.624999 140.685,153.400001 140.685,153.16 C140.685,152.919999 140.637501,152.692501 140.5425,152.4775 C140.4475,152.262499 140.322501,152.075001 140.1675,151.915 C140.012499,151.754999 139.827501,151.63 139.6125,151.54 C139.397499,151.45 139.170001,151.405 138.93,151.405 C138.679999,151.405 138.447501,151.45 138.2325,151.54 C138.017499,151.63 137.832501,151.754999 137.6775,151.915 C137.522499,152.075001 137.400001,152.257499 137.31,152.4625 C137.22,152.667501 137.175,152.889999 137.175,153.13 L137.175,153.13 Z M140.595,149.305 L143.325,149.305 L143.325,157 L140.595,157 L140.595,156.145 C140.014997,156.875004 139.230005,157.24 138.24,157.24 C137.679997,157.24 137.165003,157.137501 136.695,156.9325 C136.224998,156.727499 135.815002,156.440002 135.465,156.07 C135.114999,155.699998 134.842501,155.265003 134.6475,154.765 C134.452499,154.264998 134.355,153.720003 134.355,153.13 C134.355,152.579997 134.449999,152.057502 134.64,151.5625 C134.830001,151.067498 135.094999,150.635002 135.435,150.265 C135.775002,149.894998 136.179998,149.602501 136.65,149.3875 C137.120003,149.172499 137.639997,149.065 138.21,149.065 C139.170005,149.065 139.964997,149.399997 140.595,150.07 L140.595,149.305 Z M150.09,155.95 L146.37,149.305 L149.52,149.305 L151.575,153.25 L153.57,149.305 L156.69,149.305 L150.51,160.84 L147.465,160.84 L150.09,155.95 Z M158.655,155.56 C158.655,155.319999 158.7,155.092501 158.79,154.8775 C158.880001,154.662499 159.005,154.475001 159.165,154.315 C159.325001,154.154999 159.512499,154.03 159.7275,153.94 C159.942501,153.85 160.169999,153.805 160.41,153.805 C160.650002,153.805 160.877499,153.85 161.0925,153.94 C161.307501,154.03 161.495,154.154999 161.655,154.315 C161.815001,154.475001 161.94,154.662499 162.03,154.8775 C162.120001,155.092501 162.165,155.319999 162.165,155.56 C162.165,155.800001 162.120001,156.027499 162.03,156.2425 C161.94,156.457501 161.815001,156.644999 161.655,156.805 C161.495,156.965001 161.307501,157.09 161.0925,157.18 C160.877499,157.27 160.650002,157.315 160.41,157.315 C160.169999,157.315 159.942501,157.27 159.7275,157.18 C159.512499,157.09 159.325001,156.965001 159.165,156.805 C159.005,156.644999 158.880001,156.457501 158.79,156.2425 C158.7,156.027499 158.655,155.800001 158.655,155.56 L158.655,155.56 Z" id="Connect-via-bluetoot"></path>
            </g>
        </g>
    </g>
</svg>