<?xml version="1.0" encoding="UTF-8"?>
<svg width="120px" height="120px" viewBox="0 0 120 120" version="1.1" xmlns="http://www.w3.org/2000/svg" xmlns:xlink="http://www.w3.org/1999/xlink">
    <!-- Generator: Sketch 40.3 (33839) - http://www.bohemiancoding.com/sketch -->
    <title>120 - iPhone</title>
    <desc>Created with Sketch.</desc>
    <defs></defs>
    <g id="Page-1" stroke="none" stroke-width="1" fill="none" fill-rule="evenodd">
        <g id="120---iPhone">
            <g id="noun_6170_cc" transform="translate(26.000000, 26.000000)"></g>
            <circle id="Oval-3" stroke="#FFFFFF" fill="#FFFFFF" cx="60" cy="60" r="57"></circle>
            <g id="Group" transform="translate(26.000000, 26.000000)" fill="#313131">
                <path d="M57.57,10.43 C51.273,4.134 42.903,0.667 34,0.667 C25.097,0.667 16.727,4.134 10.431,10.43 C4.133,16.726 0.667,25.097 0.667,34 C0.667,42.903 4.133,51.274 10.431,57.569 C16.727,63.866 25.097,67.333 34,67.333 C42.903,67.333 51.273,63.866 57.57,57.569 C70.566,44.573 70.566,23.427 57.57,10.43 L57.57,10.43 Z M54.517,48.86 L45.069,39.412 C49.2,36.421 54.167,34.735 59.307,34.609 C59.188,39.628 57.594,44.617 54.517,48.86 L54.517,48.86 Z M39.412,45.068 L48.861,54.517 C44.724,57.526 39.795,59.198 34.601,59.318 C34.724,54.173 36.405,49.213 39.412,45.068 L39.412,45.068 Z M58.234,26.643 C51.365,26.996 44.765,29.476 39.363,33.707 L34.296,28.64 C38.554,23.216 41.01,16.626 41.352,9.745 C45.299,10.936 48.916,13.089 51.914,16.086 C54.963,19.136 57.068,22.777 58.234,26.643 L58.234,26.643 Z M13.482,19.139 L22.931,28.588 C18.794,31.58 13.817,33.265 8.681,33.391 C8.804,28.201 10.476,23.273 13.482,19.139 L13.482,19.139 Z M19.139,13.482 C23.276,10.473 28.206,8.801 33.399,8.681 C33.276,13.826 31.594,18.785 28.588,22.931 L19.139,13.482 L19.139,13.482 Z M9.748,41.361 C16.619,41.01 23.23,38.526 28.637,34.292 L33.703,39.36 C29.445,44.782 26.99,51.372 26.647,58.255 C22.701,57.064 19.084,54.91 16.086,51.913 C13.092,48.918 10.939,45.305 9.748,41.361 L9.748,41.361 Z" id="Shape"></path>
            </g>
        </g>
    </g>
</svg>