<?xml version="1.0" encoding="UTF-8"?>
<svg width="120px" height="120px" viewBox="0 0 120 120" version="1.1" xmlns="http://www.w3.org/2000/svg" xmlns:xlink="http://www.w3.org/1999/xlink" style="background: #313031;">
    <!-- Generator: Sketch 40.3 (33839) - http://www.bohemiancoding.com/sketch -->
    <title>120 - iPhone</title>
    <desc>Created with Sketch.</desc>
    <defs></defs>
    <g id="Page-1" stroke="none" stroke-width="1" fill="none" fill-rule="evenodd">
        <g id="120---iPhone">
            <circle id="Oval-3" stroke="#FFFFFF" fill="#FFFFFF" cx="60" cy="61" r="57"></circle>
            <g id="noun_104307_cc" transform="translate(28.000000, 41.000000)" fill="#313131">
                <g id="Group">
                    <path d="M62.2222222,0 L1.77777778,0 C0.782222222,0 0,0.86 0,1.95454545 L0,41.0454545 C0,42.14 0.782222222,43 1.77777778,43 L62.2222222,43 C63.2177778,43 64,42.14 64,41.0454545 L64,1.95454545 C64,0.86 63.2177778,0 62.2222222,0 L62.2222222,0 Z M60.4444444,39.0909091 L3.55555556,39.0909091 L3.55555556,6.17636364 L31.0755556,25.0963636 C31.36,25.3309091 31.7155556,25.4090909 32,25.4090909 C32.2844444,25.4090909 32.64,25.3309091 32.9244444,25.0963636 L60.4444444,6.17636364 L60.4444444,39.0909091 L60.4444444,39.0909091 Z" id="Shape"></path>
                </g>
            </g>
        </g>
    </g>
</svg>